<svg width="500" height="405" viewBox="0 0 500 405" fill="none" xmlns="http://www.w3.org/2000/svg">
<g clip-path="url(#clip0_173_4)">
<path fill-rule="evenodd" clip-rule="evenodd" d="M260.4 188.07C258.74 187.19 256.85 186.75 254.73 186.75C252.49 186.75 250.52 187.227 248.82 188.18C247.773 188.76 246.83 189.52 245.99 190.46C245.643 190.847 245.323 191.25 245.03 191.67C243.45 193.963 242.66 196.8 242.66 200.18C242.66 203.587 243.46 206.44 245.06 208.74C245.34 209.147 245.643 209.533 245.97 209.9C246.81 210.84 247.746 211.6 248.78 212.18C250.48 213.133 252.446 213.61 254.68 213.61C256.973 213.61 258.99 213.12 260.73 212.14C261.736 211.567 262.65 210.827 263.47 209.92C263.85 209.507 264.196 209.07 264.51 208.61C266.05 206.35 266.82 203.563 266.82 200.25C266.82 196.937 266.053 194.137 264.52 191.85C264.2 191.377 263.846 190.927 263.46 190.5C262.546 189.487 261.526 188.677 260.4 188.07ZM213.18 201.46C214.86 201.207 216.133 200.97 217 200.75V213H219.45V187.37H217V198.67C214.213 199.37 211.5 199.72 208.86 199.72C207.873 199.72 207.02 199.593 206.3 199.34C205.586 199.087 205.04 198.787 204.66 198.44C204.293 198.087 203.996 197.64 203.77 197.1C203.543 196.56 203.403 196.087 203.35 195.68C203.303 195.273 203.28 194.817 203.28 194.31V187.37H200.83V194.46C200.83 195.253 200.876 195.957 200.97 196.57C201.07 197.177 201.293 197.83 201.64 198.53C201.906 199.063 202.243 199.53 202.65 199.93C202.77 200.043 202.893 200.15 203.02 200.25C203.6 200.71 204.406 201.09 205.44 201.39C206.466 201.683 207.69 201.83 209.11 201.83C210.143 201.83 211.5 201.707 213.18 201.46ZM242.27 189.45V187.37H221.82V189.45H230.82V213H233.27V189.45H242.27ZM291.66 187.37H280.68V213H292.02C294.32 213 296.253 212.463 297.82 211.39C297.96 211.303 298.093 211.21 298.22 211.11C298.76 210.697 299.213 210.22 299.58 209.68C300.32 208.587 300.69 207.243 300.69 205.65C300.69 204.063 300.303 202.783 299.53 201.81C299.416 201.67 299.293 201.533 299.16 201.4C299 201.24 298.83 201.087 298.65 200.94C297.716 200.193 296.586 199.69 295.26 199.43C295.72 199.323 296.156 199.163 296.57 198.95C297.256 198.59 297.87 198.077 298.41 197.41C298.83 196.883 299.146 196.32 299.36 195.72C299.58 195.113 299.69 194.463 299.69 193.77C299.69 192.323 299.346 191.123 298.66 190.17C298.32 189.703 297.9 189.297 297.4 188.95C295.873 187.897 293.96 187.37 291.66 187.37ZM322.49 201.12C322.256 200.78 321.986 200.46 321.68 200.16C321.466 199.953 321.24 199.763 321 199.59C319.72 198.637 318.086 198.16 316.1 198.16H307.14V187.37H304.69V213H316.1C318.1 213 319.743 212.52 321.03 211.56C321.256 211.387 321.473 211.2 321.68 211C321.986 210.7 322.26 210.377 322.5 210.03C323.326 208.83 323.74 207.347 323.74 205.58C323.74 203.807 323.323 202.32 322.49 201.12ZM329.79 187.37H327.33V213H329.79V187.37ZM365.74 213V187.37H361.24V197.55H349.51V187.37H345.01V213H349.51V201.47H361.24V213H365.74ZM389.5 191.15V187.37H371.04V213H389.72V209.15H375.5V201.59H388.5V197.95H375.5V191.15H389.5ZM250.33 189.89C251.603 189.217 253.053 188.88 254.68 188.88C256.38 188.88 257.886 189.233 259.2 189.94C260.133 190.447 260.97 191.137 261.71 192.01C261.87 192.197 262.023 192.39 262.17 192.59C263.636 194.597 264.37 197.14 264.37 200.22C264.37 203.32 263.626 205.87 262.14 207.87C262.006 208.05 261.866 208.223 261.72 208.39C261.013 209.223 260.213 209.887 259.32 210.38C257.986 211.113 256.453 211.48 254.72 211.48C253 211.48 251.483 211.117 250.17 210.39C249.263 209.89 248.453 209.217 247.74 208.37C247.646 208.257 247.553 208.143 247.46 208.03C245.893 205.99 245.11 203.35 245.11 200.11C245.11 197.05 245.843 194.527 247.31 192.54C247.45 192.347 247.6 192.157 247.76 191.97C248.513 191.09 249.37 190.397 250.33 189.89ZM283.05 198.7V189.45H290.54C291.48 189.45 292.303 189.507 293.01 189.62C293.716 189.72 294.416 189.93 295.11 190.25C295.496 190.423 295.833 190.647 296.12 190.92C296.346 191.14 296.543 191.397 296.71 191.69C297.083 192.337 297.27 193.14 297.27 194.1C297.27 195.187 297.006 196.073 296.48 196.76C296.22 197.1 295.896 197.387 295.51 197.62C294.336 198.34 292.896 198.7 291.19 198.7H283.05ZM320.39 208.78C320.21 209.033 320.003 209.27 319.77 209.49C319.71 209.55 319.646 209.607 319.58 209.66C318.593 210.487 317.253 210.9 315.56 210.9H307.14V200.25H315.56C317.24 200.25 318.573 200.663 319.56 201.49C319.633 201.55 319.703 201.613 319.77 201.68C320.003 201.893 320.206 202.123 320.38 202.37C320.986 203.23 321.29 204.303 321.29 205.59C321.29 206.857 320.99 207.92 320.39 208.78ZM283.05 210.9V200.68H290.58C291.586 200.68 292.483 200.743 293.27 200.87C294.07 200.983 294.876 201.203 295.69 201.53C296.19 201.73 296.623 202.003 296.99 202.35C297.21 202.563 297.406 202.807 297.58 203.08C298.026 203.787 298.25 204.657 298.25 205.69C298.25 206.77 298.033 207.677 297.6 208.41C297.386 208.77 297.13 209.083 296.83 209.35C296.523 209.623 296.173 209.847 295.78 210.02C295 210.367 294.22 210.603 293.44 210.73C292.66 210.843 291.756 210.9 290.73 210.9H283.05ZM220.19 249.2C220.556 248.32 220.74 247.447 220.74 246.58C220.74 245.407 220.5 244.36 220.02 243.44C219.84 243.1 219.63 242.773 219.39 242.46C218.963 241.92 218.473 241.477 217.92 241.13C217.313 240.743 216.633 240.473 215.88 240.32V240.21C215.913 240.197 215.943 240.187 215.97 240.18C216.99 239.9 217.906 239.25 218.72 238.23C219.22 237.603 219.573 236.93 219.78 236.21C219.913 235.73 219.98 235.227 219.98 234.7C219.98 233.28 219.653 232.077 219 231.09C218.593 230.477 218.056 229.947 217.39 229.5C215.663 228.333 213.443 227.75 210.73 227.75C207.943 227.75 205.676 228.413 203.93 229.74C203.543 230.027 203.2 230.347 202.9 230.7C201.813 231.973 201.233 233.68 201.16 235.82H205.44C205.553 234.547 205.953 233.543 206.64 232.81C207.573 231.817 209.033 231.32 211.02 231.32C212.46 231.32 213.576 231.64 214.37 232.28C214.656 232.507 214.89 232.767 215.07 233.06C215.39 233.58 215.55 234.197 215.55 234.91C215.55 235.67 215.39 236.337 215.07 236.91C214.89 237.237 214.663 237.533 214.39 237.8C214.123 238.053 213.833 238.263 213.52 238.43C212.913 238.75 212.223 238.91 211.45 238.91H208.32V242.4H211.45C212.936 242.4 214.106 242.75 214.96 243.45C215.166 243.623 215.35 243.813 215.51 244.02C215.996 244.667 216.24 245.497 216.24 246.51C216.24 247.717 215.943 248.687 215.35 249.42C215.23 249.573 215.093 249.72 214.94 249.86C214.08 250.627 212.833 251.01 211.2 251.01C209.233 251.01 207.636 250.56 206.41 249.66C206.103 249.433 205.833 249.173 205.6 248.88C204.92 248.02 204.58 246.893 204.58 245.5H200.15C200.15 247.607 200.65 249.353 201.65 250.74C202.056 251.313 202.553 251.823 203.14 252.27C205.126 253.81 207.73 254.58 210.95 254.58C212.656 254.58 214.166 254.313 215.48 253.78C216.8 253.247 217.826 252.57 218.56 251.75C219.293 250.923 219.836 250.073 220.19 249.2ZM368.04 229.07C366.38 228.19 364.49 227.75 362.37 227.75C360.13 227.75 358.16 228.227 356.46 229.18C355.413 229.76 354.47 230.52 353.63 231.46C353.283 231.847 352.963 232.25 352.67 232.67C351.09 234.963 350.3 237.8 350.3 241.18C350.3 244.587 351.1 247.44 352.7 249.74C352.98 250.147 353.283 250.533 353.61 250.9C354.45 251.84 355.386 252.6 356.42 253.18C358.12 254.133 360.086 254.61 362.32 254.61C364.613 254.61 366.63 254.12 368.37 253.14C369.376 252.567 370.29 251.827 371.11 250.92C371.49 250.507 371.836 250.07 372.15 249.61C373.69 247.35 374.46 244.563 374.46 241.25C374.46 237.937 373.693 235.137 372.16 232.85C371.84 232.377 371.486 231.927 371.1 231.5C370.186 230.487 369.166 229.677 368.04 229.07ZM272.62 254L262.71 228.33H257.93L248.03 254H252.67L255.19 247.19H265.34L267.79 254H272.62ZM245.68 254V228.37H241.18V238.55H229.45V228.37H224.95V254H229.45V242.47H241.18V254H245.68ZM293.46 232.15V228.37H274.99V254H293.68V250.15H279.46V242.59H292.45V238.95H279.46V232.15H293.46ZM316.1 232.25V228.37H295.26V232.25H303.43V254H307.93V232.25H316.1ZM337.48 232.15V228.37H319.02V254H337.7V250.15H323.48V242.59H336.48V238.95H323.48V232.15H337.48ZM357.97 230.89C359.243 230.217 360.693 229.88 362.32 229.88C364.02 229.88 365.526 230.233 366.84 230.94C367.773 231.447 368.61 232.137 369.35 233.01C369.51 233.197 369.663 233.39 369.81 233.59C371.276 235.597 372.01 238.14 372.01 241.22C372.01 244.32 371.266 246.87 369.78 248.87C369.646 249.05 369.506 249.223 369.36 249.39C368.653 250.223 367.853 250.887 366.96 251.38C365.626 252.113 364.093 252.48 362.36 252.48C360.64 252.48 359.123 252.117 357.81 251.39C356.903 250.89 356.093 250.217 355.38 249.37C355.286 249.257 355.193 249.143 355.1 249.03C353.533 246.99 352.75 244.35 352.75 241.11C352.75 238.05 353.483 235.527 354.95 233.54C355.09 233.347 355.24 233.157 355.4 232.97C356.153 232.09 357.01 231.397 357.97 230.89ZM260.34 233.01L264.15 243.81H256.34L260.34 233.01ZM304.89 270.07C303.236 269.19 301.346 268.75 299.22 268.75C296.986 268.75 295.016 269.227 293.31 270.18C292.27 270.76 291.33 271.52 290.49 272.46C290.143 272.847 289.823 273.25 289.53 273.67C287.95 275.963 287.16 278.8 287.16 282.18C287.16 285.587 287.956 288.44 289.55 290.74C289.83 291.147 290.136 291.533 290.47 291.9C291.303 292.84 292.24 293.6 293.28 294.18C294.98 295.133 296.946 295.61 299.18 295.61C301.473 295.61 303.486 295.12 305.22 294.14C306.233 293.567 307.15 292.827 307.97 291.92C308.343 291.5 308.69 291.063 309.01 290.61C310.55 288.35 311.32 285.563 311.32 282.25C311.32 278.937 310.55 276.137 309.01 273.85C308.69 273.377 308.336 272.927 307.95 272.5C307.043 271.487 306.023 270.677 304.89 270.07ZM267.5 295L257.28 269.29H254.58L244.21 295H246.84L249.97 286.93H261.71L264.8 295H267.5ZM221.53 301.9H223.98V292.9H221.28V269.37H205.37V274.17C205.37 274.637 205.34 275.733 205.28 277.46C205.22 279.187 205.11 280.52 204.95 281.46C204.796 282.4 204.586 283.613 204.32 285.1C204.06 286.587 203.693 287.96 203.22 289.22C202.753 290.48 202.196 291.707 201.55 292.9H199.22V301.9H201.66V295H221.53V301.9ZM238.02 269.37H227.04V295H229.49V284.05H237.94C240.34 284.05 242.263 283.463 243.71 282.29C243.77 282.243 243.83 282.197 243.89 282.15C244.156 281.91 244.4 281.657 244.62 281.39C245.593 280.17 246.08 278.56 246.08 276.56C246.08 274.773 245.653 273.31 244.8 272.17C244.54 271.823 244.24 271.507 243.9 271.22C243.873 271.2 243.846 271.177 243.82 271.15C242.38 269.963 240.446 269.37 238.02 269.37ZM269.77 295H272.18V271.45H285.65V269.37H269.77V295ZM335.58 301.9H338.03V292.9H335.33V269.37H332.88V292.9H317.61V269.37H315.17V295H335.58V301.9ZM358.94 271.45V269.37H341.16V295H359.09V292.9H343.6V282.75H357.97V280.7H343.6V271.45H358.94ZM382.67 295V269.37H380.22V280.52H364.92V269.37H362.47V295H364.92V282.61H380.22V295H382.67ZM408.01 295V269.37H405.56V280.52H390.26V269.37H387.82V295H390.26V282.61H405.56V295H408.01ZM431 283.12C430.76 282.78 430.49 282.46 430.19 282.16C429.97 281.953 429.743 281.763 429.51 281.59C428.223 280.637 426.586 280.16 424.6 280.16H415.64V269.37H413.2V295H424.6C426.6 295 428.243 294.52 429.53 293.56C429.756 293.387 429.976 293.2 430.19 293C430.496 292.7 430.766 292.377 431 292.03C431.826 290.83 432.24 289.347 432.24 287.58C432.24 285.807 431.826 284.32 431 283.12ZM438.29 269.37H435.84V295H438.29V269.37ZM452.61 281.82L461.37 269.37H458.66L452.8 277.53C452.293 278.397 451.74 279.26 451.14 280.12C451 279.907 450.753 279.507 450.4 278.92C450.053 278.333 449.77 277.883 449.55 277.57L443.83 269.37H440.95L449.7 281.82L440.38 295H443.18L449.66 285.78C449.733 285.66 449.876 285.433 450.09 285.1C450.31 284.76 450.51 284.457 450.69 284.19C450.87 283.93 451.02 283.74 451.14 283.62C451.26 283.807 451.39 284.04 451.53 284.32C451.676 284.6 452.003 285.1 452.51 285.82L458.91 295H461.87L452.61 281.82ZM294.82 271.89C296.093 271.217 297.546 270.88 299.18 270.88C300.873 270.88 302.376 271.233 303.69 271.94C304.623 272.447 305.46 273.137 306.2 274.01C306.36 274.197 306.513 274.39 306.66 274.59C308.133 276.597 308.87 279.14 308.87 282.22C308.87 285.32 308.126 287.87 306.64 289.87C306.506 290.05 306.366 290.223 306.22 290.39C305.506 291.223 304.703 291.887 303.81 292.38C302.483 293.113 300.95 293.48 299.21 293.48C297.496 293.48 295.98 293.117 294.66 292.39C293.76 291.89 292.953 291.217 292.24 290.37C292.14 290.257 292.046 290.143 291.96 290.03C290.393 287.99 289.61 285.35 289.61 282.11C289.61 279.043 290.34 276.52 291.8 274.54C291.946 274.347 292.096 274.157 292.25 273.97C293.01 273.09 293.866 272.397 294.82 271.89ZM218.83 271.45V292.9H204.15C205.01 291.253 205.713 289.51 206.26 287.67C206.82 285.83 207.193 283.863 207.38 281.77C207.573 279.663 207.693 278.013 207.74 276.82C207.793 275.62 207.82 273.987 207.82 271.92V271.45H218.83ZM229.49 282V271.45H237.51C239.436 271.45 240.936 271.89 242.01 272.77C242.216 272.937 242.403 273.117 242.57 273.31C243.276 274.157 243.63 275.3 243.63 276.74C243.63 278.093 243.3 279.177 242.64 279.99C242.42 280.263 242.16 280.507 241.86 280.72C240.693 281.573 239.16 282 237.26 282H229.49ZM255.91 271.6L260.95 284.95H250.73L255.91 271.6ZM428.9 290.78C428.72 291.033 428.513 291.27 428.28 291.49C428.22 291.543 428.156 291.6 428.09 291.66C427.096 292.487 425.756 292.9 424.07 292.9H415.64V282.25H424.07C425.743 282.25 427.076 282.663 428.07 283.49C428.143 283.55 428.213 283.613 428.28 283.68C428.506 283.893 428.706 284.123 428.88 284.37C429.486 285.23 429.79 286.303 429.79 287.59C429.79 288.857 429.493 289.92 428.9 290.78ZM290.87 336L280.64 310.29H277.95L267.57 336H270.2L273.33 327.93H285.07L288.17 336H290.87ZM361.29 335.28L351.35 310.29H348.65L338.28 336H340.91L344.04 327.93H355.78L358.87 336H363.59L370.06 326.78C370.14 326.66 370.283 326.433 370.49 326.1C370.71 325.76 370.91 325.457 371.09 325.19C371.27 324.93 371.42 324.74 371.54 324.62C371.66 324.807 371.793 325.04 371.94 325.32C372.086 325.6 372.41 326.1 372.91 326.82L379.32 336H382.27L373.02 322.82L381.77 310.37H379.06L373.2 318.53C372.7 319.397 372.146 320.26 371.54 321.12C371.4 320.907 371.153 320.507 370.8 319.92C370.453 319.333 370.173 318.883 369.96 318.57L364.24 310.37H361.35L370.11 322.82L361.29 335.28ZM226.46 336V310.37H223.11L215.77 328.73C215.53 329.323 215.216 330.187 214.83 331.32C214.45 332.447 214.2 333.163 214.08 333.47C213.14 330.857 212.553 329.25 212.32 328.65L204.87 310.37H201.55V336H203.89V320.45C203.89 318.023 203.793 315.407 203.6 312.6C204.206 314.467 204.773 316.037 205.3 317.31L212.96 336H215.16L222.72 317.1C223.346 315.587 223.91 314.037 224.41 312.45C224.216 315.33 224.12 318.02 224.12 320.52V336H226.46ZM249.36 312.45V310.37H231.58V336H249.51V333.9H234.02V323.75H248.39V321.7H234.02V312.45H249.36ZM270.56 312.45V310.37H250.11V312.45H259.11V336H261.56V312.45H270.56ZM309.66 336H312.1V310.37H297.02L296.52 326.1C296.42 329.213 296.12 331.383 295.62 332.61C295.253 333.503 294.76 334.07 294.14 334.31C293.906 334.403 293.653 334.45 293.38 334.45C292.166 334.45 291.33 334.307 290.87 334.02V336.03C291.636 336.363 292.5 336.53 293.46 336.53C294.28 336.53 295.01 336.36 295.65 336.02C297.656 334.927 298.726 332.097 298.86 327.53L299.32 312.45H309.66V336ZM333.67 336H336.12V310.37H321.03L320.53 326.1C320.43 329.213 320.13 331.383 319.63 332.61C319.263 333.503 318.77 334.07 318.15 334.31C317.916 334.403 317.666 334.45 317.4 334.45C316.18 334.45 315.34 334.307 314.88 334.02V336.03C315.646 336.363 316.51 336.53 317.47 336.53C318.296 336.53 319.026 336.36 319.66 336.02C321.673 334.927 322.743 332.097 322.87 327.53L323.34 312.45H333.67V336ZM279.27 312.6L284.32 325.95H274.1L279.27 312.6ZM349.98 312.6L355.02 325.95H344.8L349.98 312.6Z" fill="white"/>
<path fill-rule="evenodd" clip-rule="evenodd" d="M265.71 371.6L272.56 366.18H271.44L262.25 373.47L263.78 366.18H263L260.32 379H261.1L262.03 374.46L265.11 372.07L269.74 379H270.62L265.71 371.6ZM238.59 378.33C239.257 377.764 239.734 376.977 240.02 375.97H239.28C239.014 376.804 238.594 377.457 238.02 377.93C238.007 377.944 237.994 377.954 237.98 377.96C237.734 378.16 237.467 378.32 237.18 378.44C236.794 378.594 236.377 378.67 235.93 378.67C235.264 378.67 234.7 378.517 234.24 378.21C234.067 378.09 233.907 377.947 233.76 377.78C233.754 377.78 233.75 377.777 233.75 377.77C233.237 377.177 232.98 376.36 232.98 375.32C232.98 374.987 233.004 374.694 233.05 374.44H240.41C240.484 373.96 240.52 373.554 240.52 373.22C240.52 372.134 240.254 371.267 239.72 370.62C239.68 370.58 239.64 370.537 239.6 370.49C239.467 370.35 239.324 370.224 239.17 370.11C238.61 369.71 237.91 369.51 237.07 369.51C236.484 369.51 235.937 369.61 235.43 369.81C234.757 370.084 234.157 370.537 233.63 371.17C233.444 371.404 233.274 371.647 233.12 371.9C232.547 372.867 232.26 374.007 232.26 375.32C232.26 376.534 232.56 377.484 233.16 378.17C233.18 378.19 233.197 378.21 233.21 378.23C233.35 378.377 233.497 378.507 233.65 378.62C234.237 379.047 234.98 379.26 235.88 379.26C236.68 379.26 237.384 379.09 237.99 378.75C238.164 378.65 238.33 378.537 238.49 378.41C238.524 378.384 238.557 378.357 238.59 378.33ZM273.3 371.92L273.75 369.78H273.08L270.42 382.33H271.14L272.36 376.42C272.427 377.1 272.637 377.667 272.99 378.12C273.09 378.26 273.204 378.387 273.33 378.5C273.444 378.6 273.56 378.687 273.68 378.76C274.187 379.094 274.804 379.26 275.53 379.26C276.044 379.26 276.524 379.177 276.97 379.01C277.384 378.857 277.77 378.63 278.13 378.33C278.57 377.964 278.94 377.554 279.24 377.1C279.46 376.774 279.644 376.427 279.79 376.06C279.964 375.634 280.094 375.197 280.18 374.75C280.274 374.27 280.32 373.784 280.32 373.29C280.32 372.17 280.044 371.277 279.49 370.61C279.47 370.584 279.45 370.557 279.43 370.53C279.237 370.31 279.02 370.124 278.78 369.97C278.287 369.664 277.697 369.51 277.01 369.51C276.29 369.51 275.65 369.66 275.09 369.96C274.357 370.354 273.76 371.007 273.3 371.92ZM297.34 378.02C297.867 377.494 298.257 376.834 298.51 376.04H297.78C297.374 377.087 296.794 377.817 296.04 378.23C295.547 378.504 294.98 378.64 294.34 378.64C293.634 378.64 293.054 378.47 292.6 378.13C292.467 378.03 292.347 377.917 292.24 377.79C291.747 377.224 291.5 376.427 291.5 375.4C291.5 374.507 291.657 373.68 291.97 372.92C292.15 372.507 292.374 372.114 292.64 371.74C293.02 371.207 293.467 370.807 293.98 370.54C294.5 370.274 295.09 370.14 295.75 370.14C296.47 370.14 297.054 370.317 297.5 370.67C297.547 370.71 297.597 370.75 297.65 370.79C297.757 370.89 297.85 371 297.93 371.12C298.204 371.507 298.34 371.99 298.34 372.57H299.06V372.51C299.06 371.85 298.907 371.287 298.6 370.82C298.48 370.64 298.337 370.474 298.17 370.32C298.117 370.267 298.057 370.217 297.99 370.17C297.424 369.73 296.687 369.51 295.78 369.51C295.134 369.51 294.537 369.627 293.99 369.86C293.664 369.994 293.354 370.17 293.06 370.39C292.614 370.73 292.234 371.117 291.92 371.55C291.687 371.877 291.49 372.227 291.33 372.6C291.27 372.754 291.21 372.91 291.15 373.07C290.904 373.817 290.78 374.604 290.78 375.43C290.78 376.624 291.077 377.554 291.67 378.22C291.677 378.227 291.687 378.237 291.7 378.25C291.814 378.377 291.937 378.49 292.07 378.59C292.65 379.03 293.39 379.25 294.29 379.25C295.05 379.25 295.727 379.094 296.32 378.78C296.534 378.667 296.737 378.534 296.93 378.38C297.077 378.274 297.214 378.154 297.34 378.02ZM317.82 374.01C317.854 373.737 317.87 373.46 317.87 373.18C317.87 372.187 317.627 371.377 317.14 370.75C317.074 370.657 317 370.57 316.92 370.49C316.814 370.377 316.697 370.274 316.57 370.18C315.984 369.734 315.224 369.51 314.29 369.51C313.45 369.51 312.707 369.684 312.06 370.03C311.527 370.324 311.057 370.74 310.65 371.28C310.357 371.667 310.114 372.074 309.92 372.5C309.52 373.387 309.32 374.364 309.32 375.43C309.32 376.564 309.597 377.46 310.15 378.12C310.19 378.167 310.234 378.214 310.28 378.26C310.38 378.367 310.49 378.467 310.61 378.56C311.224 379.027 312.017 379.26 312.99 379.26C313.577 379.26 314.124 379.16 314.63 378.96C314.797 378.894 314.957 378.817 315.11 378.73C315.51 378.504 315.86 378.234 316.16 377.92C316.34 377.727 316.504 377.517 316.65 377.29C316.704 377.21 316.754 377.13 316.8 377.05C317.12 376.524 317.37 375.954 317.55 375.34C317.684 374.907 317.774 374.464 317.82 374.01ZM329.66 371.92L330.11 369.78H329.44L326.78 382.33H327.5L328.72 376.42C328.787 377.1 328.997 377.667 329.35 378.12C329.45 378.26 329.564 378.387 329.69 378.5C329.797 378.6 329.91 378.687 330.03 378.76C330.544 379.094 331.164 379.26 331.89 379.26C332.397 379.26 332.877 379.177 333.33 379.01C333.744 378.857 334.13 378.63 334.49 378.33C334.93 377.964 335.3 377.554 335.6 377.1C335.82 376.774 336.004 376.427 336.15 376.06C336.317 375.634 336.447 375.197 336.54 374.75C336.634 374.27 336.68 373.784 336.68 373.29C336.68 372.17 336.404 371.277 335.85 370.61C335.83 370.584 335.81 370.557 335.79 370.53C335.597 370.31 335.38 370.124 335.14 369.97C334.647 369.664 334.054 369.51 333.36 369.51C332.647 369.51 332.01 369.66 331.45 369.96C330.71 370.354 330.114 371.007 329.66 371.92ZM344.7 378.02C345.22 377.494 345.61 376.834 345.87 376.04H345.14C344.734 377.087 344.154 377.817 343.4 378.23C342.907 378.504 342.34 378.64 341.7 378.64C340.994 378.64 340.414 378.47 339.96 378.13C339.827 378.03 339.704 377.917 339.59 377.79C339.104 377.224 338.86 376.427 338.86 375.4C338.86 374.507 339.017 373.68 339.33 372.92C339.504 372.507 339.727 372.114 340 371.74C340.38 371.207 340.827 370.807 341.34 370.54C341.86 370.274 342.447 370.14 343.1 370.14C343.827 370.14 344.414 370.317 344.86 370.67C344.907 370.71 344.954 370.75 345 370.79C345.107 370.89 345.204 371 345.29 371.12C345.564 371.507 345.7 371.99 345.7 372.57H346.41V372.51C346.41 371.85 346.26 371.287 345.96 370.82C345.84 370.64 345.697 370.474 345.53 370.32C345.47 370.267 345.41 370.217 345.35 370.17C344.784 369.73 344.047 369.51 343.14 369.51C342.494 369.51 341.894 369.627 341.34 369.86C341.02 369.994 340.714 370.17 340.42 370.39C339.974 370.73 339.594 371.117 339.28 371.55C339.047 371.877 338.85 372.227 338.69 372.6C338.624 372.754 338.564 372.91 338.51 373.07C338.257 373.817 338.13 374.604 338.13 375.43C338.13 376.624 338.427 377.554 339.02 378.22C339.034 378.227 339.044 378.237 339.05 378.25C339.17 378.377 339.297 378.49 339.43 378.59C340.004 379.03 340.744 379.25 341.65 379.25C342.404 379.25 343.08 379.094 343.68 378.78C343.894 378.667 344.097 378.534 344.29 378.38C344.437 378.274 344.574 378.154 344.7 378.02ZM361.98 378.33C362.647 377.764 363.124 376.977 363.41 375.97H362.67C362.404 376.804 361.984 377.457 361.41 377.93C361.397 377.944 361.384 377.954 361.37 377.96C361.124 378.16 360.857 378.32 360.57 378.44C360.184 378.594 359.767 378.67 359.32 378.67C358.654 378.67 358.09 378.517 357.63 378.21C357.457 378.09 357.297 377.947 357.15 377.78C357.144 377.78 357.14 377.777 357.14 377.77C356.627 377.177 356.37 376.36 356.37 375.32C356.37 374.987 356.394 374.694 356.44 374.44H363.8C363.874 373.96 363.91 373.554 363.91 373.22C363.91 372.134 363.644 371.267 363.11 370.62C363.07 370.58 363.03 370.537 362.99 370.49C362.857 370.35 362.714 370.224 362.56 370.11C362 369.71 361.3 369.51 360.46 369.51C359.874 369.51 359.327 369.61 358.82 369.81C358.147 370.084 357.547 370.537 357.02 371.17C356.834 371.404 356.664 371.647 356.51 371.9C355.937 372.867 355.65 374.007 355.65 375.32C355.65 376.534 355.95 377.484 356.55 378.17C356.57 378.19 356.587 378.21 356.6 378.23C356.74 378.377 356.887 378.507 357.04 378.62C357.627 379.047 358.37 379.26 359.27 379.26C360.07 379.26 360.774 379.09 361.38 378.75C361.554 378.65 361.72 378.537 361.88 378.41C361.914 378.384 361.947 378.357 361.98 378.33ZM283.71 370.22C283.117 370.68 282.684 371.417 282.41 372.43H283.13C283.344 371.65 283.694 371.08 284.18 370.72C284.667 370.36 285.344 370.18 286.21 370.18C287.197 370.18 287.867 370.417 288.22 370.89C288.414 371.15 288.51 371.484 288.51 371.89C288.51 372.524 288.397 372.97 288.17 373.23C287.917 373.524 287.167 373.71 285.92 373.79C284.9 373.85 284.154 373.927 283.68 374.02C283.22 374.107 282.807 374.254 282.44 374.46C282.194 374.607 281.974 374.78 281.78 374.98C281.66 375.12 281.55 375.27 281.45 375.43C281.37 375.57 281.304 375.714 281.25 375.86C281.15 376.147 281.1 376.454 281.1 376.78C281.1 377.32 281.22 377.78 281.46 378.16C281.567 378.32 281.694 378.467 281.84 378.6C281.854 378.607 281.867 378.617 281.88 378.63C282.374 379.05 283.047 379.26 283.9 379.26C284.707 379.26 285.41 379.09 286.01 378.75C286.604 378.41 287.1 377.91 287.5 377.25C287.42 377.584 287.38 377.86 287.38 378.08C287.38 378.427 287.467 378.68 287.64 378.84C287.794 378.994 288.017 379.07 288.31 379.07C288.464 379.07 288.697 379.034 289.01 378.96L289.12 378.37C288.847 378.424 288.65 378.45 288.53 378.45C288.384 378.45 288.27 378.417 288.19 378.35C288.084 378.257 288.03 378.1 288.03 377.88C288.03 377.554 288.13 376.97 288.33 376.13L288.98 373.31C289.147 372.59 289.23 372.06 289.23 371.72C289.23 371.32 289.144 370.974 288.97 370.68C288.837 370.46 288.66 370.27 288.44 370.11C287.914 369.724 287.17 369.53 286.21 369.53C285.137 369.53 284.304 369.76 283.71 370.22ZM216.62 379L218.44 370.41H223.84L223.98 369.78H217.86L215.9 379H216.62ZM229.85 379L229.24 381.89H229.96L230.71 378.37H229.45L231.27 369.78H225.58L225.42 370.57C225.134 371.964 224.727 373.387 224.2 374.84C223.667 376.287 223.09 377.464 222.47 378.37H221.39L220.63 381.89H221.35L221.96 379H229.85ZM251.56 369.78H248.12L246.17 379H250.31C250.804 379 251.18 378.99 251.44 378.97C251.694 378.95 252.004 378.877 252.37 378.75C252.677 378.65 252.944 378.507 253.17 378.32C253.224 378.274 253.274 378.23 253.32 378.19C253.607 377.917 253.82 377.614 253.96 377.28C254.107 376.934 254.18 376.557 254.18 376.15C254.18 375.69 254.074 375.3 253.86 374.98C253.82 374.92 253.774 374.86 253.72 374.8C253.667 374.74 253.61 374.684 253.55 374.63C253.27 374.377 252.914 374.214 252.48 374.14C253.147 374.04 253.67 373.8 254.05 373.42C254.057 373.414 254.064 373.407 254.07 373.4C254.17 373.3 254.257 373.19 254.33 373.07C254.544 372.73 254.65 372.324 254.65 371.85C254.65 371.39 254.564 371.014 254.39 370.72C254.324 370.614 254.247 370.517 254.16 370.43C254.014 370.284 253.834 370.174 253.62 370.1C253.287 369.974 252.97 369.89 252.67 369.85C252.37 369.804 252 369.78 251.56 369.78ZM306.96 374.41L305.99 379H306.71L308.65 369.78H307.93L307.08 373.79H301.34L302.19 369.78H301.47L299.53 379H300.25L301.22 374.41H306.96ZM353.55 379H354.34L351.04 373.67L355.94 369.78H354.89L348.41 374.96L349.53 369.78H348.81L346.85 379H347.57L348.21 375.92L350.5 374.1L353.55 379ZM325.35 379L327.32 369.8H323.2C322.34 369.8 321.61 369.994 321.01 370.38C320.937 370.434 320.864 370.487 320.79 370.54C320.57 370.707 320.387 370.904 320.24 371.13C319.967 371.544 319.83 372.047 319.83 372.64C319.83 372.934 319.88 373.207 319.98 373.46C320.06 373.674 320.177 373.874 320.33 374.06C320.57 374.354 320.847 374.564 321.16 374.69C321.28 374.744 321.407 374.78 321.54 374.8L317.49 379H318.39L322.22 375.02H325.48L324.65 379H325.35ZM239.76 373.83H233.14C233.38 372.69 233.847 371.787 234.54 371.12C234.907 370.767 235.31 370.51 235.75 370.35C236.144 370.197 236.564 370.12 237.01 370.12C237.71 370.12 238.287 370.287 238.74 370.62C238.86 370.714 238.974 370.817 239.08 370.93C239.094 370.944 239.104 370.954 239.11 370.96C239.584 371.5 239.82 372.247 239.82 373.2C239.82 373.334 239.8 373.544 239.76 373.83ZM276.04 370.21C276.294 370.15 276.55 370.12 276.81 370.12C277.524 370.12 278.104 370.297 278.55 370.65C278.677 370.75 278.794 370.864 278.9 370.99C278.907 370.997 278.914 371.007 278.92 371.02C279.374 371.587 279.6 372.337 279.6 373.27C279.6 373.857 279.51 374.464 279.33 375.09C279.184 375.59 278.99 376.064 278.75 376.51C278.69 376.624 278.627 376.734 278.56 376.84C278.414 377.087 278.24 377.314 278.04 377.52C277.814 377.76 277.557 377.974 277.27 378.16C277.01 378.327 276.74 378.45 276.46 378.53C276.16 378.624 275.844 378.67 275.51 378.67C274.897 378.67 274.37 378.53 273.93 378.25C273.757 378.137 273.597 378 273.45 377.84C273.39 377.774 273.334 377.704 273.28 377.63C272.887 377.104 272.69 376.43 272.69 375.61C272.69 375.384 272.7 375.157 272.72 374.93C272.814 373.977 273.107 373.047 273.6 372.14C273.787 371.814 274.007 371.52 274.26 371.26C274.467 371.047 274.7 370.854 274.96 370.68C275.307 370.454 275.667 370.297 276.04 370.21ZM332.4 370.21C332.654 370.15 332.91 370.12 333.17 370.12C333.884 370.12 334.464 370.297 334.91 370.65C335.037 370.75 335.15 370.864 335.25 370.99C335.264 370.997 335.274 371.007 335.28 371.02C335.734 371.587 335.96 372.337 335.96 373.27C335.96 373.857 335.87 374.464 335.69 375.09C335.544 375.59 335.35 376.064 335.11 376.51C335.05 376.624 334.987 376.734 334.92 376.84C334.767 377.087 334.594 377.314 334.4 377.52C334.174 377.76 333.914 377.974 333.62 378.16C333.367 378.327 333.1 378.45 332.82 378.53C332.514 378.624 332.197 378.67 331.87 378.67C331.25 378.67 330.724 378.53 330.29 378.25C330.117 378.137 329.957 378 329.81 377.84C329.75 377.774 329.694 377.704 329.64 377.63C329.247 377.104 329.05 376.43 329.05 375.61C329.05 375.384 329.06 375.157 329.08 374.93C329.174 373.977 329.467 373.047 329.96 372.14C330.147 371.814 330.367 371.52 330.62 371.26C330.827 371.047 331.06 370.854 331.32 370.68C331.667 370.454 332.027 370.297 332.4 370.21ZM363.15 373.83H356.53C356.77 372.69 357.237 371.787 357.93 371.12C358.297 370.767 358.7 370.51 359.14 370.35C359.534 370.197 359.954 370.12 360.4 370.12C361.1 370.12 361.677 370.287 362.13 370.62C362.25 370.714 362.364 370.817 362.47 370.93C362.484 370.944 362.494 370.954 362.5 370.96C362.974 371.5 363.21 372.247 363.21 373.2C363.21 373.334 363.19 373.544 363.15 373.83ZM312.9 370.38C313.314 370.22 313.757 370.14 314.23 370.14C314.964 370.14 315.57 370.317 316.05 370.67C316.164 370.75 316.27 370.844 316.37 370.95C316.444 371.024 316.51 371.1 316.57 371.18C316.957 371.694 317.15 372.35 317.15 373.15C317.15 373.23 317.147 373.314 317.14 373.4C317.12 373.954 317.04 374.5 316.9 375.04C316.767 375.547 316.584 376.024 316.35 376.47C316.29 376.584 316.227 376.697 316.16 376.81C316.02 377.05 315.857 377.267 315.67 377.46C315.437 377.72 315.164 377.947 314.85 378.14C314.697 378.24 314.537 378.324 314.37 378.39C313.95 378.564 313.497 378.65 313.01 378.65C312.27 378.65 311.657 378.474 311.17 378.12C311.044 378.034 310.927 377.93 310.82 377.81C310.8 377.79 310.784 377.77 310.77 377.75C310.284 377.19 310.04 376.417 310.04 375.43C310.04 374.81 310.114 374.214 310.26 373.64C310.327 373.407 310.4 373.18 310.48 372.96C310.614 372.614 310.78 372.294 310.98 372C311.24 371.614 311.557 371.267 311.93 370.96C312.23 370.714 312.554 370.52 312.9 370.38ZM248.01 373.83L248.73 370.39H251.63C251.964 370.39 252.24 370.404 252.46 370.43C252.687 370.45 252.924 370.51 253.17 370.61C253.35 370.677 253.5 370.774 253.62 370.9C253.667 370.954 253.707 371.01 253.74 371.07C253.867 371.277 253.93 371.55 253.93 371.89C253.93 372.324 253.827 372.684 253.62 372.97C253.214 373.544 252.407 373.83 251.2 373.83H248.01ZM323.16 370.39H326.47L325.63 374.41H322.75C322.097 374.41 321.567 374.257 321.16 373.95C320.98 373.81 320.837 373.65 320.73 373.47C320.61 373.244 320.55 372.984 320.55 372.69C320.55 372.164 320.677 371.724 320.93 371.37C321.03 371.224 321.15 371.094 321.29 370.98C321.35 370.934 321.41 370.89 321.47 370.85C321.93 370.544 322.494 370.39 323.16 370.39ZM226.17 370.41H230.42L228.73 378.37H223.22C223.76 377.584 224.284 376.504 224.79 375.13C225.297 373.757 225.707 372.417 226.02 371.11L226.17 370.41ZM287.34 374.21C287.7 374.137 287.98 374.004 288.18 373.81L287.97 374.73C287.77 375.57 287.567 376.2 287.36 376.62C287.16 377 286.917 377.334 286.63 377.62C286.437 377.807 286.224 377.974 285.99 378.12C285.744 378.274 285.487 378.394 285.22 378.48C284.854 378.607 284.46 378.67 284.04 378.67C283.347 378.67 282.8 378.5 282.4 378.16C282.28 378.054 282.18 377.937 282.1 377.81C281.907 377.517 281.81 377.164 281.81 376.75C281.81 376.51 281.847 376.284 281.92 376.07C281.974 375.904 282.047 375.744 282.14 375.59C282.274 375.377 282.437 375.197 282.63 375.05C282.744 374.97 282.867 374.9 283 374.84C283.52 374.6 284.314 374.447 285.38 374.38C286.447 374.314 287.1 374.257 287.34 374.21ZM247.04 378.37L247.85 374.44H250.98C251.327 374.44 251.624 374.46 251.87 374.5C252.117 374.534 252.374 374.6 252.64 374.7C252.834 374.774 252.99 374.877 253.11 375.01C253.17 375.07 253.22 375.134 253.26 375.2C253.394 375.427 253.46 375.72 253.46 376.08C253.46 376.36 253.417 376.624 253.33 376.87C253.257 377.07 253.157 377.257 253.03 377.43C252.864 377.664 252.667 377.85 252.44 377.99C252.28 378.084 252.107 378.154 251.92 378.2C251.52 378.314 250.914 378.37 250.1 378.37H247.04ZM273.81 396.01C273.844 395.737 273.86 395.46 273.86 395.18C273.86 394.187 273.62 393.377 273.14 392.75C273.067 392.657 272.99 392.57 272.91 392.49C272.804 392.377 272.69 392.274 272.57 392.18C271.977 391.734 271.214 391.51 270.28 391.51C269.44 391.51 268.7 391.684 268.06 392.03C267.52 392.324 267.047 392.74 266.64 393.28C266.347 393.667 266.104 394.074 265.91 394.5C265.51 395.387 265.31 396.364 265.31 397.43C265.31 398.564 265.587 399.46 266.14 400.12C266.18 400.167 266.224 400.214 266.27 400.26C266.377 400.367 266.487 400.467 266.6 400.56C267.214 401.027 268.007 401.26 268.98 401.26C269.567 401.26 270.114 401.16 270.62 400.96C270.787 400.894 270.947 400.817 271.1 400.73C271.5 400.504 271.85 400.234 272.15 399.92C272.33 399.727 272.494 399.517 272.64 399.29C272.694 399.21 272.744 399.13 272.79 399.05C273.11 398.524 273.36 397.954 273.54 397.34C273.674 396.907 273.764 396.464 273.81 396.01ZM281.68 400.02C282.207 399.494 282.6 398.834 282.86 398.04H282.12C281.714 399.087 281.134 399.817 280.38 400.23C279.887 400.504 279.32 400.64 278.68 400.64C277.974 400.64 277.394 400.47 276.94 400.13C276.807 400.03 276.687 399.917 276.58 399.79C276.087 399.224 275.84 398.427 275.84 397.4C275.84 396.507 276 395.68 276.32 394.92C276.494 394.507 276.714 394.114 276.98 393.74C277.36 393.207 277.807 392.807 278.32 392.54C278.84 392.274 279.43 392.14 280.09 392.14C280.81 392.14 281.394 392.317 281.84 392.67C281.894 392.71 281.944 392.75 281.99 392.79C282.097 392.89 282.19 393 282.27 393.12C282.544 393.507 282.68 393.99 282.68 394.57H283.4V394.51C283.4 393.85 283.247 393.287 282.94 392.82C282.82 392.64 282.677 392.474 282.51 392.32C282.457 392.267 282.397 392.217 282.33 392.17C281.77 391.73 281.034 391.51 280.12 391.51C279.474 391.51 278.877 391.627 278.33 391.86C278.004 391.994 277.694 392.17 277.4 392.39C276.954 392.73 276.574 393.117 276.26 393.55C276.027 393.877 275.834 394.227 275.68 394.6C275.614 394.754 275.554 394.91 275.5 395.07C275.247 395.817 275.12 396.604 275.12 397.43C275.12 398.624 275.417 399.554 276.01 400.22C276.017 400.227 276.027 400.237 276.04 400.25C276.154 400.377 276.28 400.49 276.42 400.59C276.994 401.03 277.73 401.25 278.63 401.25C279.39 401.25 280.067 401.094 280.66 400.78C280.874 400.667 281.08 400.534 281.28 400.38C281.42 400.274 281.554 400.154 281.68 400.02ZM304.16 396.01C304.194 395.737 304.21 395.46 304.21 395.18C304.21 394.187 303.967 393.377 303.48 392.75C303.414 392.657 303.34 392.57 303.26 392.49C303.154 392.377 303.037 392.274 302.91 392.18C302.324 391.734 301.564 391.51 300.63 391.51C299.79 391.51 299.047 391.684 298.4 392.03C297.867 392.324 297.397 392.74 296.99 393.28C296.697 393.667 296.454 394.074 296.26 394.5C295.86 395.387 295.66 396.364 295.66 397.43C295.66 398.564 295.937 399.46 296.49 400.12C296.53 400.167 296.574 400.214 296.62 400.26C296.72 400.367 296.83 400.467 296.95 400.56C297.564 401.027 298.357 401.26 299.33 401.26C299.917 401.26 300.464 401.16 300.97 400.96C301.137 400.894 301.297 400.817 301.45 400.73C301.85 400.504 302.2 400.234 302.5 399.92C302.68 399.727 302.844 399.517 302.99 399.29C303.044 399.21 303.094 399.13 303.14 399.05C303.46 398.524 303.71 397.954 303.89 397.34C304.024 396.907 304.114 396.464 304.16 396.01ZM314.66 393.92L315.12 391.78H314.45L311.79 404.33H312.51L313.73 398.42C313.797 399.1 314.004 399.667 314.35 400.12C314.457 400.26 314.574 400.387 314.7 400.5C314.807 400.6 314.92 400.687 315.04 400.76C315.554 401.094 316.174 401.26 316.9 401.26C317.407 401.26 317.884 401.177 318.33 401.01C318.75 400.857 319.14 400.63 319.5 400.33C319.94 399.964 320.31 399.554 320.61 399.1C320.824 398.774 321.004 398.427 321.15 398.06C321.324 397.634 321.454 397.197 321.54 396.75C321.64 396.27 321.69 395.784 321.69 395.29C321.69 394.17 321.414 393.277 320.86 392.61C320.84 392.584 320.817 392.557 320.79 392.53C320.597 392.31 320.384 392.124 320.15 391.97C319.65 391.664 319.057 391.51 318.37 391.51C317.65 391.51 317.014 391.66 316.46 391.96C315.72 392.354 315.12 393.007 314.66 393.92ZM329.32 400.33C329.98 399.764 330.454 398.977 330.74 397.97H330C329.734 398.804 329.314 399.457 328.74 399.93C328.734 399.944 328.724 399.954 328.71 399.96C328.457 400.16 328.187 400.32 327.9 400.44C327.514 400.594 327.097 400.67 326.65 400.67C325.984 400.67 325.424 400.517 324.97 400.21C324.79 400.09 324.627 399.947 324.48 399.78C324.48 399.78 324.477 399.777 324.47 399.77C323.957 399.177 323.7 398.36 323.7 397.32C323.7 396.987 323.727 396.694 323.78 396.44H331.14C331.207 395.96 331.24 395.554 331.24 395.22C331.24 394.134 330.974 393.267 330.44 392.62C330.4 392.58 330.36 392.537 330.32 392.49C330.187 392.35 330.044 392.224 329.89 392.11C329.33 391.71 328.63 391.51 327.79 391.51C327.204 391.51 326.66 391.61 326.16 391.81C325.487 392.084 324.884 392.537 324.35 393.17C324.164 393.404 323.994 393.647 323.84 393.9C323.267 394.867 322.98 396.007 322.98 397.32C322.98 398.534 323.28 399.484 323.88 400.17C323.9 400.19 323.917 400.21 323.93 400.23C324.07 400.377 324.217 400.507 324.37 400.62C324.957 401.047 325.7 401.26 326.6 401.26C327.4 401.26 328.104 401.09 328.71 400.75C328.89 400.65 329.06 400.537 329.22 400.41C329.254 400.384 329.287 400.357 329.32 400.33ZM212.68 392.22C212.094 392.68 211.66 393.417 211.38 394.43H212.1C212.314 393.65 212.664 393.08 213.15 392.72C213.637 392.36 214.314 392.18 215.18 392.18C216.167 392.18 216.837 392.417 217.19 392.89C217.384 393.15 217.48 393.484 217.48 393.89C217.48 394.524 217.367 394.97 217.14 395.23C216.89 395.52 216.14 395.71 214.89 395.79C213.87 395.85 213.127 395.927 212.66 396.02C212.194 396.107 211.78 396.254 211.42 396.46C211.167 396.607 210.947 396.78 210.76 396.98C210.634 397.12 210.524 397.27 210.43 397.43C210.344 397.57 210.274 397.714 210.22 397.86C210.12 398.147 210.07 398.454 210.07 398.78C210.07 399.32 210.194 399.78 210.44 400.16C210.54 400.32 210.667 400.467 210.82 400.6C210.827 400.607 210.837 400.617 210.85 400.63C211.344 401.05 212.02 401.26 212.88 401.26C213.68 401.26 214.384 401.09 214.99 400.75C215.577 400.41 216.074 399.91 216.48 399.25C216.394 399.584 216.35 399.86 216.35 400.08C216.35 400.427 216.437 400.68 216.61 400.84C216.764 400.994 216.99 401.07 217.29 401.07C217.444 401.07 217.677 401.034 217.99 400.96L218.09 400.37C217.817 400.424 217.62 400.45 217.5 400.45C217.354 400.45 217.24 400.417 217.16 400.35C217.054 400.257 217 400.1 217 399.88C217 399.554 217.1 398.97 217.3 398.13L217.95 395.31C218.117 394.59 218.2 394.06 218.2 393.72C218.2 393.32 218.114 392.974 217.94 392.68C217.814 392.46 217.637 392.27 217.41 392.11C216.884 391.724 216.14 391.53 215.18 391.53C214.114 391.53 213.28 391.76 212.68 392.22ZM208.25 396.41L207.28 401H208L209.94 391.78H209.22L208.37 395.79H202.63L203.48 391.78H202.76L200.82 401H201.54L202.51 396.41H208.25ZM231.6 396.41L230.63 401H231.34L233.29 391.78H232.57L231.72 395.79H225.98L226.82 391.78H226.1L224.16 401H224.88L225.85 396.41H231.6ZM241.71 392.72L239.97 401H240.68L242.63 391.78H241.69L234.46 400.09H234.44L236.2 391.78H235.49L233.54 401H234.46L241.69 392.72H241.71ZM247.04 396.23L251.14 391.78H250.26L246.72 395.7L244.7 391.78H243.87L246.19 396.15L241.68 401H242.58L246.52 396.69L248.77 401H249.61L247.04 396.23ZM263.81 392.39L261.98 401H262.7L264.66 391.78H257.48L255.52 401H256.24L258.07 392.39H263.81ZM284.6 401L286.42 392.43H286.46L288.1 401H288.85L294.11 392.43H294.15L292.33 401H293.05L295.01 391.78H293.82L288.62 400.15L286.97 391.78H285.85L283.88 401H284.6ZM307.61 401L309.43 392.41H312.92L313.04 391.78H305.34L305.22 392.41H308.71L306.89 401H307.61ZM334.63 401L336.45 392.41H339.94L340.06 391.78H332.36L332.24 392.41H335.72L333.91 401H334.63ZM347.36 399.08C347.487 398.734 347.55 398.364 347.55 397.97C347.55 397.17 347.354 396.59 346.96 396.23C346.887 396.164 346.81 396.107 346.73 396.06C346.184 395.714 345.437 395.54 344.49 395.54H341.45L342.24 391.78H341.54L339.58 401H343.55C344.657 401 345.457 400.884 345.95 400.65C346.17 400.544 346.37 400.414 346.55 400.26C346.77 400.067 346.96 399.84 347.12 399.58C347.214 399.42 347.294 399.254 347.36 399.08ZM317.41 392.21C317.657 392.15 317.914 392.12 318.18 392.12C318.894 392.12 319.474 392.297 319.92 392.65C320.04 392.75 320.154 392.864 320.26 392.99C320.267 392.997 320.277 393.007 320.29 393.02C320.744 393.587 320.97 394.337 320.97 395.27C320.97 395.857 320.877 396.464 320.69 397.09C320.55 397.59 320.36 398.064 320.12 398.51C320.06 398.624 319.997 398.734 319.93 398.84C319.777 399.087 319.604 399.314 319.41 399.52C319.184 399.76 318.924 399.974 318.63 400.16C318.377 400.327 318.107 400.45 317.82 400.53C317.52 400.624 317.207 400.67 316.88 400.67C316.26 400.67 315.734 400.53 315.3 400.25C315.127 400.137 314.967 400 314.82 399.84C314.76 399.774 314.7 399.704 314.64 399.63C314.247 399.104 314.05 398.43 314.05 397.61C314.05 397.384 314.064 397.157 314.09 396.93C314.184 395.977 314.477 395.047 314.97 394.14C315.157 393.814 315.374 393.52 315.62 393.26C315.834 393.047 316.07 392.854 316.33 392.68C316.677 392.454 317.037 392.297 317.41 392.21ZM330.49 395.83H323.86C324.1 394.69 324.567 393.787 325.26 393.12C325.634 392.767 326.037 392.51 326.47 392.35C326.864 392.197 327.284 392.12 327.73 392.12C328.43 392.12 329.007 392.287 329.46 392.62C329.587 392.714 329.7 392.817 329.8 392.93C329.814 392.944 329.824 392.954 329.83 392.96C330.304 393.5 330.54 394.247 330.54 395.2C330.54 395.334 330.524 395.544 330.49 395.83ZM268.9 392.38C269.307 392.22 269.75 392.14 270.23 392.14C270.964 392.14 271.567 392.317 272.04 392.67C272.16 392.75 272.27 392.844 272.37 392.95C272.437 393.024 272.5 393.1 272.56 393.18C272.947 393.694 273.14 394.35 273.14 395.15C273.14 395.23 273.137 395.314 273.13 395.4C273.11 395.954 273.03 396.5 272.89 397.04C272.757 397.547 272.574 398.024 272.34 398.47C272.28 398.584 272.217 398.697 272.15 398.81C272.01 399.05 271.847 399.267 271.66 399.46C271.427 399.72 271.154 399.947 270.84 400.14C270.687 400.24 270.527 400.324 270.36 400.39C269.94 400.564 269.487 400.65 269 400.65C268.26 400.65 267.65 400.474 267.17 400.12C267.037 400.034 266.917 399.93 266.81 399.81C266.797 399.79 266.78 399.77 266.76 399.75C266.274 399.19 266.03 398.417 266.03 397.43C266.03 396.81 266.107 396.214 266.26 395.64C266.32 395.407 266.394 395.18 266.48 394.96C266.607 394.614 266.77 394.294 266.97 394C267.23 393.614 267.547 393.267 267.92 392.96C268.22 392.714 268.547 392.52 268.9 392.38ZM299.24 392.38C299.654 392.22 300.097 392.14 300.57 392.14C301.304 392.14 301.91 392.317 302.39 392.67C302.504 392.75 302.61 392.844 302.71 392.95C302.784 393.024 302.85 393.1 302.91 393.18C303.297 393.694 303.49 394.35 303.49 395.15C303.49 395.23 303.487 395.314 303.48 395.4C303.46 395.954 303.38 396.5 303.24 397.04C303.107 397.547 302.924 398.024 302.69 398.47C302.63 398.584 302.567 398.697 302.5 398.81C302.36 399.05 302.197 399.267 302.01 399.46C301.777 399.72 301.504 399.947 301.19 400.14C301.037 400.24 300.877 400.324 300.71 400.39C300.29 400.564 299.837 400.65 299.35 400.65C298.61 400.65 297.997 400.474 297.51 400.12C297.384 400.034 297.267 399.93 297.16 399.81C297.14 399.79 297.124 399.77 297.11 399.75C296.624 399.19 296.38 398.417 296.38 397.43C296.38 396.81 296.454 396.214 296.6 395.64C296.667 395.407 296.74 395.18 296.82 394.96C296.954 394.614 297.12 394.294 297.32 394C297.58 393.614 297.894 393.267 298.26 392.96C298.567 392.714 298.894 392.52 299.24 392.38ZM216.31 396.21C216.67 396.137 216.954 396.004 217.16 395.81L216.94 396.73C216.74 397.57 216.537 398.2 216.33 398.62C216.137 399 215.894 399.334 215.6 399.62C215.407 399.807 215.194 399.974 214.96 400.12C214.72 400.274 214.467 400.394 214.2 400.48C213.827 400.607 213.434 400.67 213.02 400.67C212.327 400.67 211.78 400.5 211.38 400.16C211.26 400.054 211.157 399.937 211.07 399.81C210.884 399.517 210.79 399.164 210.79 398.75C210.79 398.51 210.824 398.284 210.89 398.07C210.944 397.904 211.017 397.744 211.11 397.59C211.244 397.377 211.407 397.197 211.6 397.05C211.714 396.97 211.84 396.9 211.98 396.84C212.494 396.6 213.284 396.447 214.35 396.38C215.417 396.314 216.07 396.257 216.31 396.21ZM346.39 396.72C346.684 396.987 346.83 397.417 346.83 398.01C346.83 398.19 346.81 398.37 346.77 398.55C346.724 398.75 346.654 398.944 346.56 399.13C346.38 399.484 346.147 399.757 345.86 399.95C345.414 400.23 344.644 400.37 343.55 400.37H340.41L341.3 396.19H344.31C345.117 396.19 345.737 396.314 346.17 396.56C346.25 396.6 346.324 396.654 346.39 396.72Z" fill="white"/>
<path d="M207.81 379.02L209.55 370.74H209.53L202.3 379.02H201.38L203.33 369.8H204.04L202.28 378.11H202.3L209.53 369.8H210.47L208.52 379.02H207.81Z" fill="white"/>
<path d="M0 1H475.5" stroke="white" stroke-width="2"/>
<path fill-rule="evenodd" clip-rule="evenodd" d="M23.1498 33.2798H4.6098V75.9998H12.1098V59.5598H24.1798C27.8731 59.5598 30.8965 58.6731 33.2498 56.8998C33.6231 56.6198 33.9798 56.3165 34.3198 55.9898C34.8931 55.4298 35.4031 54.8265 35.8498 54.1798C37.3098 52.0531 38.0398 49.4231 38.0398 46.2898C38.0398 42.8765 37.2065 40.1331 35.5398 38.0598C35.0998 37.5065 34.5998 37.0031 34.0398 36.5498C31.3798 34.3698 27.7498 33.2798 23.1498 33.2798ZM75.2298 39.5798V33.2798H44.4498V75.9998H75.5998V69.5798H51.8898V56.9798H73.5598V50.9198H51.8898V39.5798H75.2298ZM113.22 86.6198H120.47V69.5198H115.68V33.2798H87.8298V39.8698C87.8298 45.7098 87.3098 51.3931 86.2698 56.9198C85.2298 62.4398 83.8898 66.6398 82.2498 69.5198H78.1098V86.6198H85.3698V75.9998H113.22V86.6198ZM144.29 50.3198L161.39 33.2798H151.91L133.02 52.6598V33.2798H125.57V75.9998H133.02V61.6498L139.14 55.5298L153.17 75.9998H162.47L144.29 50.3198ZM166.62 33.2798V75.9998H175.32L193.67 43.2398V75.9998H201.17V33.2798H192.47L174.12 66.0298V33.2798H166.62ZM240.77 39.5798V33.2798H209.99V75.9998H241.14V69.5798H217.44V56.9798H239.1V50.9198H217.44V39.5798H240.77ZM264.42 33.2798V75.9998H273.12L291.47 43.2398V75.9998H298.97V33.2798H290.27L271.92 66.0298V33.2798H264.42ZM12.1098 53.4998V39.5198H21.8898C25.5165 39.5198 28.0231 40.3998 29.4098 42.1598C30.2765 43.2598 30.7098 44.6998 30.7098 46.4798C30.7098 48.4665 30.2198 50.0331 29.2398 51.1798C27.9065 52.7265 25.6765 53.4998 22.5498 53.4998H12.1098ZM108.18 39.7498V69.5198H90.2998C91.6531 66.7531 92.7998 62.8231 93.7398 57.7298C94.3131 54.6298 94.7131 51.5165 94.9398 48.3898C95.0865 46.3765 95.1598 44.3565 95.1598 42.3298V39.7498H108.18ZM189.58 101.58C186.726 100.026 183.453 99.2498 179.76 99.2498C175.42 99.2498 171.7 100.23 168.6 102.19C167.153 103.11 165.84 104.24 164.66 105.58C163.86 106.5 163.146 107.47 162.52 108.49C160.253 112.176 159.12 116.56 159.12 121.64C159.12 127.12 160.393 131.74 162.94 135.5C163.493 136.32 164.11 137.1 164.79 137.84C166.163 139.34 167.693 140.566 169.38 141.52C172.326 143.186 175.743 144.02 179.63 144.02C183.41 144.02 186.75 143.22 189.65 141.62C191.416 140.646 193.016 139.376 194.45 137.81C195.203 136.99 195.88 136.123 196.48 135.21C198.926 131.49 200.15 126.966 200.15 121.64C200.15 116.266 198.916 111.713 196.45 107.98C195.863 107.1 195.206 106.263 194.48 105.47C193.013 103.863 191.38 102.566 189.58 101.58ZM275.2 101.58C272.346 100.026 269.073 99.2498 265.38 99.2498C259.01 99.2498 253.98 101.36 250.28 105.58C249.48 106.5 248.766 107.47 248.14 108.49C245.873 112.176 244.74 116.56 244.74 121.64C244.74 127.12 246.013 131.74 248.56 135.5C249.113 136.32 249.73 137.1 250.41 137.84C254.19 141.96 259.14 144.02 265.25 144.02C269.03 144.02 272.37 143.22 275.27 141.62C277.036 140.646 278.636 139.376 280.07 137.81C280.823 136.99 281.5 136.123 282.1 135.21C284.546 131.49 285.77 126.966 285.77 121.64C285.77 116.266 284.536 111.713 282.07 107.98C281.483 107.1 280.826 106.263 280.1 105.47C278.633 103.863 277 102.566 275.2 101.58ZM123.54 143L107.03 100.22H99.0598L82.5498 143H90.2998L94.4898 131.66H111.41L115.5 143H123.54ZM36.9498 138.09C38.5898 135.93 39.4098 133.146 39.4098 129.74C39.4098 126.36 38.5965 123.606 36.9698 121.48C36.5765 120.96 36.1298 120.476 35.6298 120.03C33.1165 117.743 29.5198 116.6 24.8398 116.6H12.0498V106.76H35.9998V100.28H4.5498V143H24.8398C29.4798 143 33.0698 141.85 35.6098 139.55C36.1031 139.103 36.5498 138.616 36.9498 138.09ZM71.2198 143H78.7198V100.28H50.8098L49.9798 125.05C49.8531 128.496 49.5098 131.193 48.9498 133.14C48.3965 135.073 47.7598 136.323 47.0398 136.89C46.3131 137.443 45.3698 137.72 44.2098 137.72C43.0565 137.72 42.0798 137.56 41.2798 137.24V143C42.8398 143.513 44.3398 143.77 45.7798 143.77C47.2598 143.77 48.6165 143.493 49.8498 142.94C51.3431 142.266 52.6565 141.186 53.7898 139.7C55.8498 136.973 56.9965 132.773 57.2298 127.1L58.0198 106.76H71.2198V143ZM127.61 143H135.11V106.76H156.6V100.28H127.61V143ZM225.59 100.28H207.05V143H214.55V126.56H226.62C230.313 126.56 233.336 125.673 235.69 123.9C236.063 123.62 236.42 123.316 236.76 122.99C237.333 122.43 237.843 121.826 238.29 121.18C239.75 119.053 240.48 116.423 240.48 113.29C240.48 109.876 239.646 107.133 237.98 105.06C237.54 104.506 237.04 104.003 236.48 103.55C233.82 101.37 230.19 100.28 225.59 100.28ZM323.46 153.62H330.71V136.52H325.92V100.28H298.07V106.87C298.07 112.71 297.55 118.393 296.51 123.92C295.47 129.44 294.13 133.64 292.49 136.52H288.35V153.62H295.61V143H323.46V153.62ZM370.31 143V100.28H362.81V117.26H343.26V100.28H335.76V143H343.26V123.79H362.81V143H370.31ZM409.07 138.09C410.716 135.93 411.54 133.146 411.54 129.74C411.54 126.36 410.723 123.606 409.09 121.48C408.696 120.96 408.253 120.476 407.76 120.03C405.24 117.743 401.64 116.6 396.96 116.6H386.75V100.28H379.25V143H396.96C401.6 143 405.19 141.85 407.73 139.55C408.223 139.103 408.67 138.616 409.07 138.09ZM424.08 100.28H416.58V143H424.08V100.28ZM463.67 106.58V100.28H432.89V143H464.04V136.58H440.34V123.98H462V117.92H440.34V106.58H463.67ZM173.76 106.93C175.473 106.01 177.43 105.55 179.63 105.55C181.943 105.55 183.98 106.046 185.74 107.04C186.993 107.74 188.106 108.693 189.08 109.9C191.42 112.806 192.59 116.7 192.59 121.58C192.59 126.453 191.42 130.363 189.08 133.31C188.013 134.656 186.783 135.693 185.39 136.42C183.743 137.286 181.866 137.72 179.76 137.72C177.326 137.72 175.2 137.193 173.38 136.14C172.18 135.44 171.113 134.506 170.18 133.34C167.846 130.42 166.68 126.48 166.68 121.52C166.68 116.68 167.856 112.806 170.21 109.9C171.243 108.633 172.426 107.643 173.76 106.93ZM255.83 109.9C258.19 107 261.33 105.55 265.25 105.55C267.563 105.55 269.6 106.046 271.36 107.04C272.613 107.74 273.726 108.693 274.7 109.9C277.04 112.806 278.21 116.7 278.21 121.58C278.21 126.453 277.04 130.363 274.7 133.31C273.633 134.656 272.403 135.693 271.01 136.42C269.363 137.286 267.486 137.72 265.38 137.72C261.34 137.72 258.14 136.26 255.8 133.34C253.466 130.42 252.3 126.48 252.3 121.52C252.3 116.68 253.476 112.806 255.83 109.9ZM214.55 120.5V106.52H224.33C227.956 106.52 230.466 107.4 231.86 109.16C232.72 110.26 233.15 111.7 233.15 113.48C233.15 115.466 232.66 117.033 231.68 118.18C230.346 119.726 228.116 120.5 224.99 120.5H214.55ZM318.42 106.76V136.52H300.54C301.893 133.76 303.04 129.83 303.98 124.73C304.553 121.63 304.953 118.516 305.18 115.39C305.326 113.376 305.4 111.356 305.4 109.33V106.76H318.42ZM103.07 108.02L109.43 126.02H96.4098L103.07 108.02ZM478.68 120.44V112.34H470.52V120.44H478.68ZM30.6298 125.44C31.4831 126.62 31.9098 128.11 31.9098 129.91C31.9098 132.096 31.3665 133.766 30.2798 134.92C29.0531 136.22 27.1365 136.87 24.5298 136.87H12.0498V122.72H24.4098C26.5498 122.72 28.2631 123.243 29.5498 124.29C29.6831 124.403 29.8131 124.52 29.9398 124.64C30.1931 124.886 30.4231 125.153 30.6298 125.44ZM402.75 125.44C403.61 126.62 404.04 128.11 404.04 129.91C404.04 132.096 403.493 133.766 402.4 134.92C401.173 136.22 399.256 136.87 396.65 136.87H386.75V122.72H396.54C398.673 122.72 400.383 123.243 401.67 124.29C401.803 124.403 401.933 124.52 402.06 124.64C402.313 124.886 402.543 125.153 402.75 125.44ZM478.68 143V134.89H470.52V143H478.68Z" fill="white"/>
<path d="M0 184H179" stroke="white" stroke-width="2"/>
</g>
<defs>
<clipPath id="clip0_173_4">
<rect width="500" height="404.331" fill="white"/>
</clipPath>
</defs>
</svg>
