<svg width="500.000000" height="404.331055" viewBox="0 0 500 404.331" fill="none" xmlns="http://www.w3.org/2000/svg" xmlns:xlink="http://www.w3.org/1999/xlink">
	<desc>
			Created with Pixso.
	</desc>
	<defs/>
	<rect id="фрейм 4" width="500.000000" height="402.000000" transform="translate(0.000000 1.000000)" fill="#FFFFFF" fill-opacity="0"/>
	<path id="что вы не знаете о драгоценных металлах" d="M260.4 188.07Q257.91 186.75 254.73 186.75Q251.37 186.75 248.82 188.18Q247.25 189.05 245.99 190.46Q245.47 191.04 245.03 191.67Q242.66 195.11 242.66 200.18Q242.66 205.29 245.06 208.74Q245.48 209.35 245.97 209.9Q247.23 211.31 248.78 212.18Q251.33 213.61 254.68 213.61Q258.12 213.61 260.73 212.14Q262.24 211.28 263.47 209.92Q264.04 209.3 264.51 208.61Q266.82 205.22 266.82 200.25Q266.82 195.28 264.52 191.85Q264.04 191.14 263.46 190.5Q262.09 188.98 260.4 188.07ZM213.18 201.46Q215.7 201.08 217 200.75L217 213L219.45 213L219.45 187.37L217 187.37L217 198.67Q212.82 199.72 208.86 199.72Q207.38 199.72 206.3 199.34Q205.23 198.96 204.66 198.44Q204.11 197.91 203.77 197.1Q203.43 196.29 203.35 195.68Q203.28 195.07 203.28 194.31L203.28 187.37L200.83 187.37L200.83 194.46Q200.83 195.65 200.97 196.57Q201.12 197.48 201.64 198.53Q202.04 199.33 202.65 199.93Q202.83 200.1 203.02 200.25Q203.89 200.94 205.44 201.39Q206.98 201.83 209.11 201.83Q210.66 201.83 213.18 201.46ZM242.27 189.45L242.27 187.37L221.82 187.37L221.82 189.45L230.82 189.45L230.82 213L233.27 213L233.27 189.45L242.27 189.45ZM291.66 187.37L280.68 187.37L280.68 213L292.02 213Q295.47 213 297.82 211.39Q298.03 211.26 298.22 211.11Q299.03 210.49 299.58 209.68Q300.69 208.04 300.69 205.65Q300.69 203.27 299.53 201.81Q299.36 201.6 299.16 201.4Q298.92 201.16 298.65 200.94Q297.25 199.82 295.26 199.43Q295.95 199.27 296.57 198.95Q297.6 198.41 298.41 197.41Q299.04 196.62 299.36 195.72Q299.69 194.81 299.69 193.77Q299.69 191.6 298.66 190.17Q298.15 189.47 297.4 188.95Q295.11 187.37 291.66 187.37ZM322.49 201.12Q322.14 200.61 321.68 200.16Q321.36 199.85 321 199.59Q319.08 198.16 316.1 198.16L307.14 198.16L307.14 187.37L304.69 187.37L304.69 213L316.1 213Q319.1 213 321.03 211.56Q321.37 211.3 321.68 211Q322.14 210.55 322.5 210.03Q323.74 208.23 323.74 205.58Q323.74 202.92 322.49 201.12ZM329.79 187.37L327.33 187.37L327.33 213L329.79 213L329.79 187.37ZM365.74 213L365.74 187.37L361.24 187.37L361.24 197.55L349.51 197.55L349.51 187.37L345.01 187.37L345.01 213L349.51 213L349.51 201.47L361.24 201.47L361.24 213L365.74 213ZM389.5 191.15L389.5 187.37L371.04 187.37L371.04 213L389.72 213L389.72 209.15L375.5 209.15L375.5 201.59L388.5 201.59L388.5 197.95L375.5 197.95L375.5 191.15L389.5 191.15ZM250.33 189.89Q252.24 188.88 254.68 188.88Q257.23 188.88 259.2 189.94Q260.6 190.7 261.71 192.01Q261.95 192.29 262.17 192.59Q264.37 195.6 264.37 200.22Q264.37 204.87 262.14 207.87Q261.94 208.14 261.72 208.39Q260.66 209.64 259.32 210.38Q257.32 211.48 254.72 211.48Q252.14 211.48 250.17 210.39Q248.81 209.64 247.74 208.37Q247.6 208.2 247.46 208.03Q245.11 204.97 245.11 200.11Q245.11 195.52 247.31 192.54Q247.52 192.25 247.76 191.97Q248.89 190.65 250.33 189.89ZM283.05 198.7L283.05 189.45L290.54 189.45Q291.95 189.45 293.01 189.62Q294.07 189.77 295.11 190.25Q295.69 190.51 296.12 190.92Q296.46 191.25 296.71 191.69Q297.27 192.66 297.27 194.1Q297.27 195.73 296.48 196.76Q296.09 197.27 295.51 197.62Q293.75 198.7 291.19 198.7L283.05 198.7ZM320.39 208.78Q320.12 209.16 319.77 209.49Q319.68 209.58 319.58 209.66Q318.1 210.9 315.56 210.9L307.14 210.9L307.14 200.25L315.56 200.25Q318.08 200.25 319.56 201.49Q319.67 201.58 319.77 201.68Q320.12 202 320.38 202.37Q321.29 203.66 321.29 205.59Q321.29 207.49 320.39 208.78ZM283.05 210.9L283.05 200.68L290.58 200.68Q292.09 200.68 293.27 200.87Q294.47 201.04 295.69 201.53Q296.44 201.83 296.99 202.35Q297.32 202.67 297.58 203.08Q298.25 204.14 298.25 205.69Q298.25 207.31 297.6 208.41Q297.28 208.95 296.83 209.35Q296.37 209.76 295.78 210.02Q294.61 210.54 293.44 210.73Q292.27 210.9 290.73 210.9L283.05 210.9ZM220.19 249.2Q220.74 247.88 220.74 246.58Q220.74 244.82 220.02 243.44Q219.75 242.93 219.39 242.46Q218.75 241.65 217.92 241.13Q217.01 240.55 215.88 240.32L215.88 240.21Q215.93 240.19 215.97 240.18Q217.5 239.76 218.72 238.23Q219.47 237.29 219.78 236.21Q219.98 235.49 219.98 234.7Q219.98 232.57 219 231.09Q218.39 230.17 217.39 229.5Q214.8 227.75 210.73 227.75Q206.55 227.75 203.93 229.74Q203.35 230.17 202.9 230.7Q201.27 232.61 201.16 235.82L205.44 235.82Q205.61 233.91 206.64 232.81Q208.04 231.32 211.02 231.32Q213.18 231.32 214.37 232.28Q214.8 232.62 215.07 233.06Q215.55 233.84 215.55 234.91Q215.55 236.05 215.07 236.91Q214.8 237.4 214.39 237.8Q213.99 238.18 213.52 238.43Q212.61 238.91 211.45 238.91L208.32 238.91L208.32 242.4L211.45 242.4Q213.68 242.4 214.96 243.45Q215.27 243.71 215.51 244.02Q216.24 244.99 216.24 246.51Q216.24 248.32 215.35 249.42Q215.17 249.65 214.94 249.86Q213.65 251.01 211.2 251.01Q208.25 251.01 206.41 249.66Q205.95 249.32 205.6 248.88Q204.58 247.59 204.58 245.5L200.15 245.5Q200.15 248.66 201.65 250.74Q202.26 251.6 203.14 252.27Q206.12 254.58 210.95 254.58Q213.51 254.58 215.48 253.78Q217.46 252.98 218.56 251.75Q219.66 250.51 220.19 249.2ZM368.04 229.07Q365.55 227.75 362.37 227.75Q359.01 227.75 356.46 229.18Q354.89 230.05 353.63 231.46Q353.11 232.04 352.67 232.67Q350.3 236.11 350.3 241.18Q350.3 246.29 352.7 249.74Q353.12 250.35 353.61 250.9Q354.87 252.31 356.42 253.18Q358.97 254.61 362.32 254.61Q365.76 254.61 368.37 253.14Q369.88 252.28 371.11 250.92Q371.68 250.3 372.15 249.61Q374.46 246.22 374.46 241.25Q374.46 236.28 372.16 232.85Q371.68 232.14 371.1 231.5Q369.73 229.98 368.04 229.07ZM272.62 254L262.71 228.33L257.93 228.33L248.03 254L252.67 254L255.19 247.19L265.34 247.19L267.79 254L272.62 254ZM245.68 254L245.68 228.37L241.18 228.37L241.18 238.55L229.45 238.55L229.45 228.37L224.95 228.37L224.95 254L229.45 254L229.45 242.47L241.18 242.47L241.18 254L245.68 254ZM293.46 232.15L293.46 228.37L274.99 228.37L274.99 254L293.68 254L293.68 250.15L279.46 250.15L279.46 242.59L292.45 242.59L292.45 238.95L279.46 238.95L279.46 232.15L293.46 232.15ZM316.1 232.25L316.1 228.37L295.26 228.37L295.26 232.25L303.43 232.25L303.43 254L307.93 254L307.93 232.25L316.1 232.25ZM337.48 232.15L337.48 228.37L319.02 228.37L319.02 254L337.7 254L337.7 250.15L323.48 250.15L323.48 242.59L336.48 242.59L336.48 238.95L323.48 238.95L323.48 232.15L337.48 232.15ZM357.97 230.89Q359.88 229.88 362.32 229.88Q364.87 229.88 366.84 230.94Q368.24 231.7 369.35 233.01Q369.59 233.29 369.81 233.59Q372.01 236.6 372.01 241.22Q372.01 245.87 369.78 248.87Q369.58 249.14 369.36 249.39Q368.3 250.64 366.96 251.38Q364.96 252.48 362.36 252.48Q359.78 252.48 357.81 251.39Q356.45 250.64 355.38 249.37Q355.24 249.2 355.1 249.03Q352.75 245.97 352.75 241.11Q352.75 236.52 354.95 233.54Q355.16 233.25 355.4 232.97Q356.53 231.65 357.97 230.89ZM260.34 233.01L264.15 243.81L256.34 243.81L260.34 233.01ZM304.89 270.07Q302.41 268.75 299.22 268.75Q295.87 268.75 293.31 270.18Q291.75 271.05 290.49 272.46Q289.97 273.04 289.53 273.67Q287.16 277.11 287.16 282.18Q287.16 287.29 289.55 290.74Q289.97 291.35 290.47 291.9Q291.72 293.31 293.28 294.18Q295.83 295.61 299.18 295.61Q302.62 295.61 305.22 294.14Q306.74 293.28 307.97 291.92Q308.53 291.29 309.01 290.61Q311.32 287.22 311.32 282.25Q311.32 277.28 309.01 273.85Q308.53 273.14 307.95 272.5Q306.59 270.98 304.89 270.07ZM267.5 295L257.28 269.29L254.58 269.29L244.21 295L246.84 295L249.97 286.93L261.71 286.93L264.8 295L267.5 295ZM221.53 301.9L223.98 301.9L223.98 292.9L221.28 292.9L221.28 269.37L205.37 269.37L205.37 274.17Q205.37 274.87 205.28 277.46Q205.19 280.05 204.95 281.46Q204.72 282.87 204.32 285.1Q203.93 287.33 203.22 289.22Q202.52 291.11 201.55 292.9L199.22 292.9L199.22 301.9L201.66 301.9L201.66 295L221.53 295L221.53 301.9ZM238.02 269.37L227.04 269.37L227.04 295L229.49 295L229.49 284.05L237.94 284.05Q241.54 284.05 243.71 282.29Q243.8 282.22 243.89 282.15Q244.29 281.79 244.62 281.39Q246.08 279.56 246.08 276.56Q246.08 273.88 244.8 272.17Q244.41 271.65 243.9 271.22Q243.86 271.19 243.82 271.15Q241.66 269.37 238.02 269.37ZM269.77 295L272.18 295L272.18 271.45L285.65 271.45L285.65 269.37L269.77 269.37L269.77 295ZM335.58 301.9L338.03 301.9L338.03 292.9L335.33 292.9L335.33 269.37L332.88 269.37L332.88 292.9L317.61 292.9L317.61 269.37L315.17 269.37L315.17 295L335.58 295L335.58 301.9ZM358.94 271.45L358.94 269.37L341.16 269.37L341.16 295L359.09 295L359.09 292.9L343.6 292.9L343.6 282.75L357.97 282.75L357.97 280.7L343.6 280.7L343.6 271.45L358.94 271.45ZM382.67 295L382.67 269.37L380.22 269.37L380.22 280.52L364.92 280.52L364.92 269.37L362.47 269.37L362.47 295L364.92 295L364.92 282.61L380.22 282.61L380.22 295L382.67 295ZM408.01 295L408.01 269.37L405.56 269.37L405.56 280.52L390.26 280.52L390.26 269.37L387.82 269.37L387.82 295L390.26 295L390.26 282.61L405.56 282.61L405.56 295L408.01 295ZM431 283.12Q430.64 282.61 430.19 282.16Q429.86 281.85 429.51 281.59Q427.58 280.16 424.6 280.16L415.64 280.16L415.64 269.37L413.2 269.37L413.2 295L424.6 295Q427.6 295 429.53 293.56Q429.87 293.3 430.19 293Q430.65 292.55 431 292.03Q432.24 290.23 432.24 287.58Q432.24 284.92 431 283.12ZM438.29 269.37L435.84 269.37L435.84 295L438.29 295L438.29 269.37ZM452.61 281.82L461.37 269.37L458.66 269.37L452.8 277.53Q452.04 278.83 451.14 280.12Q450.93 279.8 450.4 278.92Q449.88 278.04 449.55 277.57L443.83 269.37L440.95 269.37L449.7 281.82L440.38 295L443.18 295L449.66 285.78Q449.77 285.6 450.09 285.1Q450.42 284.59 450.69 284.19Q450.96 283.8 451.14 283.62Q451.32 283.9 451.53 284.32Q451.75 284.74 452.51 285.82L458.91 295L461.87 295L452.61 281.82ZM294.82 271.89Q296.73 270.88 299.18 270.88Q301.72 270.88 303.69 271.94Q305.09 272.7 306.2 274.01Q306.44 274.29 306.66 274.59Q308.87 277.6 308.87 282.22Q308.87 286.87 306.64 289.87Q306.44 290.14 306.22 290.39Q305.15 291.64 303.81 292.38Q301.82 293.48 299.21 293.48Q296.64 293.48 294.66 292.39Q293.31 291.64 292.24 290.37Q292.09 290.2 291.96 290.03Q289.61 286.97 289.61 282.11Q289.61 277.51 291.8 274.54Q292.02 274.25 292.25 273.97Q293.39 272.65 294.82 271.89ZM218.83 271.45L218.83 292.9L204.15 292.9Q205.44 290.43 206.26 287.67Q207.1 284.91 207.38 281.77Q207.67 278.61 207.74 276.82Q207.82 275.02 207.82 271.92L207.82 271.45L218.83 271.45ZM229.49 282L229.49 271.45L237.51 271.45Q240.4 271.45 242.01 272.77Q242.32 273.02 242.57 273.31Q243.63 274.58 243.63 276.74Q243.63 278.77 242.64 279.99Q242.31 280.4 241.86 280.72Q240.11 282 237.26 282L229.49 282ZM255.91 271.6L260.95 284.95L250.73 284.95L255.91 271.6ZM428.9 290.78Q428.63 291.16 428.28 291.49Q428.19 291.57 428.09 291.66Q426.6 292.9 424.07 292.9L415.64 292.9L415.64 282.25L424.07 282.25Q426.58 282.25 428.07 283.49Q428.18 283.58 428.28 283.68Q428.62 284 428.88 284.37Q429.79 285.66 429.79 287.59Q429.79 289.49 428.9 290.78ZM290.87 336L280.64 310.29L277.95 310.29L267.57 336L270.2 336L273.33 327.93L285.07 327.93L288.17 336L290.87 336ZM361.29 335.28L351.35 310.29L348.65 310.29L338.28 336L340.91 336L344.04 327.93L355.78 327.93L358.87 336L363.59 336L370.06 326.78Q370.18 326.6 370.49 326.1Q370.82 325.59 371.09 325.19Q371.36 324.8 371.54 324.62Q371.72 324.9 371.94 325.32Q372.16 325.74 372.91 326.82L379.32 336L382.27 336L373.02 322.82L381.77 310.37L379.06 310.37L373.2 318.53Q372.45 319.83 371.54 321.12Q371.33 320.8 370.8 319.92Q370.28 319.04 369.96 318.57L364.24 310.37L361.35 310.37L370.11 322.82L361.29 335.28ZM226.46 336L226.46 310.37L223.11 310.37L215.77 328.73Q215.41 329.62 214.83 331.32Q214.26 333.01 214.08 333.47Q212.67 329.55 212.32 328.65L204.87 310.37L201.55 310.37L201.55 336L203.89 336L203.89 320.45Q203.89 316.81 203.6 312.6Q204.51 315.4 205.3 317.31L212.96 336L215.16 336L222.72 317.1Q223.66 314.83 224.41 312.45Q224.12 316.77 224.12 320.52L224.12 336L226.46 336ZM249.36 312.45L249.36 310.37L231.58 310.37L231.58 336L249.51 336L249.51 333.9L234.02 333.9L234.02 323.75L248.39 323.75L248.39 321.7L234.02 321.7L234.02 312.45L249.36 312.45ZM270.56 312.45L270.56 310.37L250.11 310.37L250.11 312.45L259.11 312.45L259.11 336L261.56 336L261.56 312.45L270.56 312.45ZM309.66 336L312.1 336L312.1 310.37L297.02 310.37L296.52 326.1Q296.37 330.77 295.62 332.61Q295.07 333.95 294.14 334.31Q293.79 334.45 293.38 334.45Q291.56 334.45 290.87 334.02L290.87 336.03Q292.02 336.53 293.46 336.53Q294.69 336.53 295.65 336.02Q298.66 334.38 298.86 327.53L299.32 312.45L309.66 312.45L309.66 336ZM333.67 336L336.12 336L336.12 310.37L321.03 310.37L320.53 326.1Q320.38 330.77 319.63 332.61Q319.08 333.95 318.15 334.31Q317.8 334.45 317.4 334.45Q315.57 334.45 314.88 334.02L314.88 336.03Q316.03 336.53 317.47 336.53Q318.71 336.53 319.66 336.02Q322.68 334.38 322.87 327.53L323.34 312.45L333.67 312.45L333.67 336ZM279.27 312.6L284.32 325.95L274.1 325.95L279.27 312.6ZM349.98 312.6L355.02 325.95L344.8 325.95L349.98 312.6Z" fill="#FFFFFF" fill-opacity="1.000000" fill-rule="evenodd"/>
	<path id="И где в Красноярске на них посмотреть" d="M212.25 367.17L209.73 379L210.5 379L213.22 366.18L212.14 366.18L201.97 378.01L201.91 378.01L204.41 366.18L203.64 366.18L200.93 379L201.97 379L212.19 367.17L212.25 367.17ZM267.71 371.6L274.56 366.18L273.44 366.18L264.25 373.47L265.78 366.18L265 366.18L262.32 379L263.1 379L264.03 374.46L267.11 372.07L271.74 379L272.62 379L267.71 371.6ZM240.59 378.33Q241.59 377.48 242.02 375.97L241.28 375.97Q240.88 377.22 240.02 377.93Q240 377.95 239.98 377.96Q239.61 378.26 239.18 378.44Q238.6 378.67 237.93 378.67Q236.93 378.67 236.24 378.21Q235.98 378.03 235.76 377.78Q235.75 377.78 235.75 377.77Q234.98 376.88 234.98 375.32Q234.98 374.82 235.05 374.44L242.41 374.44Q242.52 373.72 242.52 373.22Q242.52 371.59 241.72 370.62Q241.66 370.56 241.6 370.49Q241.4 370.28 241.17 370.11Q240.33 369.51 239.07 369.51Q238.19 369.51 237.43 369.81Q236.42 370.22 235.63 371.17Q235.35 371.52 235.12 371.9Q234.26 373.35 234.26 375.32Q234.26 377.14 235.16 378.17Q235.19 378.2 235.21 378.23Q235.42 378.45 235.65 378.62Q236.53 379.26 237.88 379.26Q239.08 379.26 239.99 378.75Q240.25 378.6 240.49 378.41Q240.54 378.37 240.59 378.33ZM275.3 371.92L275.75 369.78L275.08 369.78L272.42 382.33L273.14 382.33L274.36 376.42Q274.46 377.44 274.99 378.12Q275.14 378.33 275.33 378.5Q275.5 378.65 275.68 378.76Q276.44 379.26 277.53 379.26Q278.3 379.26 278.97 379.01Q279.59 378.78 280.13 378.33Q280.79 377.78 281.24 377.1Q281.57 376.61 281.79 376.06Q282.05 375.42 282.18 374.75Q282.32 374.03 282.32 373.29Q282.32 371.61 281.49 370.61Q281.46 370.57 281.43 370.53Q281.14 370.2 280.78 369.97Q280.04 369.51 279.01 369.51Q277.93 369.51 277.09 369.96Q275.99 370.55 275.3 371.92ZM299.34 378.02Q300.13 377.23 300.51 376.04L299.78 376.04Q299.17 377.61 298.04 378.23Q297.3 378.64 296.34 378.64Q295.28 378.64 294.6 378.13Q294.4 377.98 294.24 377.79Q293.5 376.94 293.5 375.4Q293.5 374.06 293.97 372.92Q294.24 372.3 294.64 371.74Q295.21 370.94 295.98 370.54Q296.76 370.14 297.75 370.14Q298.83 370.14 299.5 370.67Q299.57 370.73 299.65 370.79Q299.81 370.94 299.93 371.12Q300.34 371.7 300.34 372.57L301.06 372.57L301.06 372.51Q301.06 371.52 300.6 370.82Q300.42 370.55 300.17 370.32Q300.09 370.24 299.99 370.17Q299.14 369.51 297.78 369.51Q296.81 369.51 295.99 369.86Q295.5 370.06 295.06 370.39Q294.39 370.9 293.92 371.55Q293.57 372.04 293.33 372.6Q293.24 372.83 293.15 373.07Q292.78 374.19 292.78 375.43Q292.78 377.22 293.67 378.22Q293.68 378.23 293.7 378.25Q293.87 378.44 294.07 378.59Q294.94 379.25 296.29 379.25Q297.43 379.25 298.32 378.78Q298.64 378.61 298.93 378.38Q299.15 378.22 299.34 378.02ZM319.82 374.01Q319.87 373.6 319.87 373.18Q319.87 371.69 319.14 370.75Q319.04 370.61 318.92 370.49Q318.76 370.32 318.57 370.18Q317.69 369.51 316.29 369.51Q315.03 369.51 314.06 370.03Q313.26 370.47 312.65 371.28Q312.21 371.86 311.92 372.5Q311.32 373.83 311.32 375.43Q311.32 377.13 312.15 378.12Q312.21 378.19 312.28 378.26Q312.43 378.42 312.61 378.56Q313.53 379.26 314.99 379.26Q315.87 379.26 316.63 378.96Q316.88 378.86 317.11 378.73Q317.71 378.39 318.16 377.92Q318.43 377.63 318.65 377.29Q318.73 377.17 318.8 377.05Q319.28 376.26 319.55 375.34Q319.75 374.69 319.82 374.01ZM331.66 371.92L332.11 369.78L331.44 369.78L328.78 382.33L329.5 382.33L330.72 376.42Q330.82 377.44 331.35 378.12Q331.5 378.33 331.69 378.5Q331.85 378.65 332.03 378.76Q332.8 379.26 333.89 379.26Q334.65 379.26 335.33 379.01Q335.95 378.78 336.49 378.33Q337.15 377.78 337.6 377.1Q337.93 376.61 338.15 376.06Q338.4 375.42 338.54 374.75Q338.68 374.03 338.68 373.29Q338.68 371.61 337.85 370.61Q337.82 370.57 337.79 370.53Q337.5 370.2 337.14 369.97Q336.4 369.51 335.36 369.51Q334.29 369.51 333.45 369.96Q332.34 370.55 331.66 371.92ZM346.7 378.02Q347.48 377.23 347.87 376.04L347.14 376.04Q346.53 377.61 345.4 378.23Q344.66 378.64 343.7 378.64Q342.64 378.64 341.96 378.13Q341.76 377.98 341.59 377.79Q340.86 376.94 340.86 375.4Q340.86 374.06 341.33 372.92Q341.59 372.3 342 371.74Q342.57 370.94 343.34 370.54Q344.12 370.14 345.1 370.14Q346.19 370.14 346.86 370.67Q346.93 370.73 347 370.79Q347.16 370.94 347.29 371.12Q347.7 371.7 347.7 372.57L348.41 372.57L348.41 372.51Q348.41 371.52 347.96 370.82Q347.78 370.55 347.53 370.32Q347.44 370.24 347.35 370.17Q346.5 369.51 345.14 369.51Q344.17 369.51 343.34 369.86Q342.86 370.06 342.42 370.39Q341.75 370.9 341.28 371.55Q340.93 372.04 340.69 372.6Q340.59 372.83 340.51 373.07Q340.13 374.19 340.13 375.43Q340.13 377.22 341.02 378.22Q341.04 378.23 341.05 378.25Q341.23 378.44 341.43 378.59Q342.29 379.25 343.65 379.25Q344.78 379.25 345.68 378.78Q346 378.61 346.29 378.38Q346.51 378.22 346.7 378.02ZM363.98 378.33Q364.98 377.48 365.41 375.97L364.67 375.97Q364.27 377.22 363.41 377.93Q363.39 377.95 363.37 377.96Q363 378.26 362.57 378.44Q361.99 378.67 361.32 378.67Q360.32 378.67 359.63 378.21Q359.37 378.03 359.15 377.78Q359.14 377.78 359.14 377.77Q358.37 376.88 358.37 375.32Q358.37 374.82 358.44 374.44L365.8 374.44Q365.91 373.72 365.91 373.22Q365.91 371.59 365.11 370.62Q365.05 370.56 364.99 370.49Q364.79 370.28 364.56 370.11Q363.72 369.51 362.46 369.51Q361.58 369.51 360.82 369.81Q359.81 370.22 359.02 371.17Q358.74 371.52 358.51 371.9Q357.65 373.35 357.65 375.32Q357.65 377.14 358.55 378.17Q358.58 378.2 358.6 378.23Q358.81 378.45 359.04 378.62Q359.92 379.26 361.27 379.26Q362.47 379.26 363.38 378.75Q363.64 378.6 363.88 378.41Q363.93 378.37 363.98 378.33ZM285.71 370.22Q284.82 370.91 284.41 372.43L285.13 372.43Q285.45 371.26 286.18 370.72Q286.91 370.18 288.21 370.18Q289.69 370.18 290.22 370.89Q290.51 371.28 290.51 371.89Q290.51 372.84 290.17 373.23Q289.79 373.67 287.92 373.79Q286.39 373.88 285.68 374.02Q284.99 374.15 284.44 374.46Q284.07 374.68 283.78 374.98Q283.6 375.19 283.45 375.43Q283.33 375.64 283.25 375.86Q283.1 376.29 283.1 376.78Q283.1 377.59 283.46 378.16Q283.62 378.4 283.84 378.6Q283.86 378.61 283.88 378.63Q284.62 379.26 285.9 379.26Q287.11 379.26 288.01 378.75Q288.9 378.24 289.5 377.25Q289.38 377.75 289.38 378.08Q289.38 378.6 289.64 378.84Q289.87 379.07 290.31 379.07Q290.54 379.07 291.01 378.96L291.12 378.37Q290.71 378.45 290.53 378.45Q290.31 378.45 290.19 378.35Q290.03 378.21 290.03 377.88Q290.03 377.39 290.33 376.13L290.98 373.31Q291.23 372.23 291.23 371.72Q291.23 371.12 290.97 370.68Q290.77 370.35 290.44 370.11Q289.65 369.53 288.21 369.53Q286.6 369.53 285.71 370.22ZM218.62 379L220.44 370.41L225.84 370.41L225.98 369.78L219.86 369.78L217.9 379L218.62 379ZM231.85 379L231.24 381.89L231.96 381.89L232.71 378.37L231.45 378.37L233.27 369.78L227.58 369.78L227.42 370.57Q226.99 372.66 226.2 374.84Q225.4 377.01 224.47 378.37L223.39 378.37L222.63 381.89L223.35 381.89L223.96 379L231.85 379ZM253.56 369.78L250.12 369.78L248.17 379L252.31 379Q253.05 379 253.44 378.97Q253.82 378.94 254.37 378.75Q254.83 378.6 255.17 378.32Q255.25 378.25 255.32 378.19Q255.75 377.78 255.96 377.28Q256.18 376.76 256.18 376.15Q256.18 375.46 255.86 374.98Q255.8 374.89 255.72 374.8Q255.64 374.71 255.55 374.63Q255.13 374.25 254.48 374.14Q255.48 373.99 256.05 373.42Q256.06 373.41 256.07 373.4Q256.22 373.25 256.33 373.07Q256.65 372.56 256.65 371.85Q256.65 371.16 256.39 370.72Q256.29 370.56 256.16 370.43Q255.94 370.21 255.62 370.1Q255.12 369.91 254.67 369.85Q254.22 369.78 253.56 369.78ZM308.96 374.41L307.99 379L308.71 379L310.65 369.78L309.93 369.78L309.08 373.79L303.34 373.79L304.19 369.78L303.47 369.78L301.53 379L302.25 379L303.22 374.41L308.96 374.41ZM355.55 379L356.34 379L353.04 373.67L357.94 369.78L356.89 369.78L350.41 374.96L351.53 369.78L350.81 369.78L348.85 379L349.57 379L350.21 375.92L352.5 374.1L355.55 379ZM327.35 379L329.32 369.8L325.2 369.8Q323.91 369.8 323.01 370.38Q322.9 370.46 322.79 370.54Q322.46 370.79 322.24 371.13Q321.83 371.75 321.83 372.64Q321.83 373.08 321.98 373.46Q322.1 373.78 322.33 374.06Q322.69 374.5 323.16 374.69Q323.34 374.77 323.54 374.8L319.49 379L320.39 379L324.22 375.02L327.48 375.02L326.65 379L327.35 379ZM241.76 373.83L235.14 373.83Q235.5 372.12 236.54 371.12Q237.09 370.59 237.75 370.35Q238.34 370.12 239.01 370.12Q240.06 370.12 240.74 370.62Q240.92 370.76 241.08 370.93Q241.1 370.95 241.11 370.96Q241.82 371.77 241.82 373.2Q241.82 373.4 241.76 373.83ZM278.04 370.21Q278.42 370.12 278.81 370.12Q279.88 370.12 280.55 370.65Q280.74 370.8 280.9 370.99Q280.91 371 280.92 371.02Q281.6 371.87 281.6 373.27Q281.6 374.15 281.33 375.09Q281.11 375.84 280.75 376.51Q280.66 376.68 280.56 376.84Q280.34 377.21 280.04 377.52Q279.7 377.88 279.27 378.16Q278.88 378.41 278.46 378.53Q278.01 378.67 277.51 378.67Q276.59 378.67 275.93 378.25Q275.67 378.08 275.45 377.84Q275.36 377.74 275.28 377.63Q274.69 376.84 274.69 375.61Q274.69 375.27 274.72 374.93Q274.86 373.5 275.6 372.14Q275.88 371.65 276.26 371.26Q276.57 370.94 276.96 370.68Q277.48 370.34 278.04 370.21ZM334.4 370.21Q334.78 370.12 335.17 370.12Q336.24 370.12 336.91 370.65Q337.1 370.8 337.25 370.99Q337.27 371 337.28 371.02Q337.96 371.87 337.96 373.27Q337.96 374.15 337.69 375.09Q337.47 375.84 337.11 376.51Q337.02 376.68 336.92 376.84Q336.69 377.21 336.4 377.52Q336.06 377.88 335.62 378.16Q335.24 378.41 334.82 378.53Q334.36 378.67 333.87 378.67Q332.94 378.67 332.29 378.25Q332.03 378.08 331.81 377.84Q331.72 377.74 331.64 377.63Q331.05 376.84 331.05 375.61Q331.05 375.27 331.08 374.93Q331.22 373.5 331.96 372.14Q332.24 371.65 332.62 371.26Q332.93 370.94 333.32 370.68Q333.84 370.34 334.4 370.21ZM365.15 373.83L358.53 373.83Q358.89 372.12 359.93 371.12Q360.48 370.59 361.14 370.35Q361.73 370.12 362.4 370.12Q363.45 370.12 364.13 370.62Q364.31 370.76 364.47 370.93Q364.49 370.95 364.5 370.96Q365.21 371.77 365.21 373.2Q365.21 373.4 365.15 373.83ZM314.9 370.38Q315.52 370.14 316.23 370.14Q317.33 370.14 318.05 370.67Q318.22 370.79 318.37 370.95Q318.48 371.06 318.57 371.18Q319.15 371.95 319.15 373.15Q319.15 373.27 319.14 373.4Q319.11 374.23 318.9 375.04Q318.7 375.8 318.35 376.47Q318.26 376.64 318.16 376.81Q317.95 377.17 317.67 377.46Q317.32 377.85 316.85 378.14Q316.62 378.29 316.37 378.39Q315.74 378.65 315.01 378.65Q313.9 378.65 313.17 378.12Q312.98 377.99 312.82 377.81Q312.79 377.78 312.77 377.75Q312.04 376.91 312.04 375.43Q312.04 374.5 312.26 373.64Q312.36 373.29 312.48 372.96Q312.68 372.44 312.98 372Q313.37 371.42 313.93 370.96Q314.38 370.59 314.9 370.38ZM250.01 373.83L250.73 370.39L253.63 370.39Q254.13 370.39 254.46 370.43Q254.8 370.46 255.17 370.61Q255.44 370.71 255.62 370.9Q255.69 370.98 255.74 371.07Q255.93 371.38 255.93 371.89Q255.93 372.54 255.62 372.97Q255.01 373.83 253.2 373.83L250.01 373.83ZM325.16 370.39L328.47 370.39L327.63 374.41L324.75 374.41Q323.77 374.41 323.16 373.95Q322.89 373.74 322.73 373.47Q322.55 373.13 322.55 372.69Q322.55 371.9 322.93 371.37Q323.08 371.15 323.29 370.98Q323.38 370.91 323.47 370.85Q324.16 370.39 325.16 370.39ZM228.17 370.41L232.42 370.41L230.73 378.37L225.22 378.37Q226.03 377.19 226.79 375.13Q227.55 373.07 228.02 371.11L228.17 370.41ZM289.34 374.21Q289.88 374.1 290.18 373.81L289.97 374.73Q289.67 375.99 289.36 376.62Q289.06 377.19 288.63 377.62Q288.34 377.9 287.99 378.12Q287.62 378.35 287.22 378.48Q286.67 378.67 286.04 378.67Q285 378.67 284.4 378.16Q284.22 378 284.1 377.81Q283.81 377.37 283.81 376.75Q283.81 376.39 283.92 376.07Q284 375.82 284.14 375.59Q284.34 375.27 284.63 375.05Q284.8 374.93 285 374.84Q285.78 374.48 287.38 374.38Q288.98 374.28 289.34 374.21ZM249.04 378.37L249.85 374.44L252.98 374.44Q253.5 374.44 253.87 374.5Q254.24 374.55 254.64 374.7Q254.93 374.81 255.11 375.01Q255.2 375.1 255.26 375.2Q255.46 375.54 255.46 376.08Q255.46 376.5 255.33 376.87Q255.22 377.17 255.03 377.43Q254.78 377.78 254.44 377.99Q254.2 378.13 253.92 378.2Q253.32 378.37 252.1 378.37L249.04 378.37ZM273.81 396.01Q273.86 395.6 273.86 395.18Q273.86 393.69 273.14 392.75Q273.03 392.61 272.91 392.49Q272.75 392.32 272.57 392.18Q271.68 391.51 270.28 391.51Q269.02 391.51 268.06 392.03Q267.25 392.47 266.64 393.28Q266.2 393.86 265.91 394.5Q265.31 395.83 265.31 397.43Q265.31 399.13 266.14 400.12Q266.2 400.19 266.27 400.26Q266.43 400.42 266.6 400.56Q267.52 401.26 268.98 401.26Q269.86 401.26 270.62 400.96Q270.87 400.86 271.1 400.73Q271.7 400.39 272.15 399.92Q272.42 399.63 272.64 399.29Q272.72 399.17 272.79 399.05Q273.27 398.26 273.54 397.34Q273.74 396.69 273.81 396.01ZM281.68 400.02Q282.47 399.23 282.86 398.04L282.12 398.04Q281.51 399.61 280.38 400.23Q279.64 400.64 278.68 400.64Q277.62 400.64 276.94 400.13Q276.74 399.98 276.58 399.79Q275.84 398.94 275.84 397.4Q275.84 396.06 276.32 394.92Q276.58 394.3 276.98 393.74Q277.55 392.94 278.32 392.54Q279.1 392.14 280.09 392.14Q281.17 392.14 281.84 392.67Q281.92 392.73 281.99 392.79Q282.15 392.94 282.27 393.12Q282.68 393.7 282.68 394.57L283.4 394.57L283.4 394.51Q283.4 393.52 282.94 392.82Q282.76 392.55 282.51 392.32Q282.43 392.24 282.33 392.17Q281.49 391.51 280.12 391.51Q279.15 391.51 278.33 391.86Q277.84 392.06 277.4 392.39Q276.73 392.9 276.26 393.55Q275.91 394.04 275.68 394.6Q275.58 394.83 275.5 395.07Q275.12 396.19 275.12 397.43Q275.12 399.22 276.01 400.22Q276.02 400.23 276.04 400.25Q276.21 400.44 276.42 400.59Q277.28 401.25 278.63 401.25Q279.77 401.25 280.66 400.78Q280.98 400.61 281.28 400.38Q281.49 400.22 281.68 400.02ZM304.16 396.01Q304.21 395.6 304.21 395.18Q304.21 393.69 303.48 392.75Q303.38 392.61 303.26 392.49Q303.1 392.32 302.91 392.18Q302.03 391.51 300.63 391.51Q299.37 391.51 298.4 392.03Q297.6 392.47 296.99 393.28Q296.55 393.86 296.26 394.5Q295.66 395.83 295.66 397.43Q295.66 399.13 296.49 400.12Q296.55 400.19 296.62 400.26Q296.77 400.42 296.95 400.56Q297.87 401.26 299.33 401.26Q300.21 401.26 300.97 400.96Q301.22 400.86 301.45 400.73Q302.05 400.39 302.5 399.92Q302.77 399.63 302.99 399.29Q303.07 399.17 303.14 399.05Q303.62 398.26 303.89 397.34Q304.09 396.69 304.16 396.01ZM314.66 393.92L315.12 391.78L314.45 391.78L311.79 404.33L312.51 404.33L313.73 398.42Q313.83 399.44 314.35 400.12Q314.51 400.33 314.7 400.5Q314.86 400.65 315.04 400.76Q315.81 401.26 316.9 401.26Q317.66 401.26 318.33 401.01Q318.96 400.78 319.5 400.33Q320.16 399.78 320.61 399.1Q320.93 398.61 321.15 398.06Q321.41 397.42 321.54 396.75Q321.69 396.03 321.69 395.29Q321.69 393.61 320.86 392.61Q320.83 392.57 320.79 392.53Q320.5 392.2 320.15 391.97Q319.4 391.51 318.37 391.51Q317.29 391.51 316.46 391.96Q315.35 392.55 314.66 393.92ZM329.32 400.33Q330.31 399.48 330.74 397.97L330 397.97Q329.6 399.22 328.74 399.93Q328.73 399.95 328.71 399.96Q328.33 400.26 327.9 400.44Q327.32 400.67 326.65 400.67Q325.65 400.67 324.97 400.21Q324.7 400.03 324.48 399.78Q324.48 399.78 324.47 399.77Q323.7 398.88 323.7 397.32Q323.7 396.82 323.78 396.44L331.14 396.44Q331.24 395.72 331.24 395.22Q331.24 393.59 330.44 392.62Q330.38 392.56 330.32 392.49Q330.12 392.28 329.89 392.11Q329.05 391.51 327.79 391.51Q326.91 391.51 326.16 391.81Q325.15 392.22 324.35 393.17Q324.07 393.52 323.84 393.9Q322.98 395.35 322.98 397.32Q322.98 399.14 323.88 400.17Q323.91 400.2 323.93 400.23Q324.14 400.45 324.37 400.62Q325.25 401.26 326.6 401.26Q327.8 401.26 328.71 400.75Q328.98 400.6 329.22 400.41Q329.27 400.37 329.32 400.33ZM212.68 392.22Q211.8 392.91 211.38 394.43L212.1 394.43Q212.42 393.26 213.15 392.72Q213.88 392.18 215.18 392.18Q216.66 392.18 217.19 392.89Q217.48 393.28 217.48 393.89Q217.48 394.84 217.14 395.23C216.89 395.52 216.14 395.71 214.89 395.79Q213.36 395.88 212.66 396.02Q211.96 396.15 211.42 396.46Q211.04 396.68 210.76 396.98Q210.57 397.19 210.43 397.43Q210.3 397.64 210.22 397.86Q210.07 398.29 210.07 398.78Q210.07 399.59 210.44 400.16Q210.59 400.4 210.82 400.6Q210.83 400.61 210.85 400.63Q211.59 401.26 212.88 401.26Q214.08 401.26 214.99 400.75Q215.87 400.24 216.48 399.25Q216.35 399.75 216.35 400.08Q216.35 400.6 216.61 400.84Q216.84 401.07 217.29 401.07Q217.52 401.07 217.99 400.96L218.09 400.37Q217.68 400.45 217.5 400.45Q217.28 400.45 217.16 400.35Q217 400.21 217 399.88Q217 399.39 217.3 398.13L217.95 395.31Q218.2 394.23 218.2 393.72Q218.2 393.12 217.94 392.68Q217.75 392.35 217.41 392.11Q216.62 391.53 215.18 391.53Q213.58 391.53 212.68 392.22ZM208.25 396.41L207.28 401L208 401L209.94 391.78L209.22 391.78L208.37 395.79L202.63 395.79L203.48 391.78L202.76 391.78L200.82 401L201.54 401L202.51 396.41L208.25 396.41ZM231.6 396.41L230.63 401L231.34 401L233.29 391.78L232.57 391.78L231.72 395.79L225.98 395.79L226.82 391.78L226.1 391.78L224.16 401L224.88 401L225.85 396.41L231.6 396.41ZM241.71 392.72L239.97 401L240.68 401L242.63 391.78L241.69 391.78L234.46 400.09L234.44 400.09L236.2 391.78L235.49 391.78L233.54 401L234.46 401L241.69 392.72L241.71 392.72ZM247.04 396.23L251.14 391.78L250.26 391.78L246.72 395.7L244.7 391.78L243.87 391.78L246.19 396.15L241.68 401L242.58 401L246.52 396.69L248.77 401L249.61 401L247.04 396.23ZM263.81 392.39L261.98 401L262.7 401L264.66 391.78L257.48 391.78L255.52 401L256.24 401L258.07 392.39L263.81 392.39ZM284.6 401L286.42 392.43L286.46 392.43L288.1 401L288.85 401L294.11 392.43L294.15 392.43L292.33 401L293.05 401L295.01 391.78L293.82 391.78L288.62 400.15L286.97 391.78L285.85 391.78L283.88 401L284.6 401ZM307.61 401L309.43 392.41L312.92 392.41L313.04 391.78L305.34 391.78L305.22 392.41L308.71 392.41L306.89 401L307.61 401ZM334.63 401L336.45 392.41L339.94 392.41L340.06 391.78L332.36 391.78L332.24 392.41L335.72 392.41L333.91 401L334.63 401ZM347.36 399.08Q347.55 398.56 347.55 397.97Q347.55 396.77 346.96 396.23Q346.85 396.13 346.73 396.06Q345.91 395.54 344.49 395.54L341.45 395.54L342.24 391.78L341.54 391.78L339.58 401L343.55 401Q345.21 401 345.95 400.65Q346.28 400.49 346.55 400.26Q346.88 399.97 347.12 399.58Q347.26 399.34 347.36 399.08ZM317.41 392.21Q317.78 392.12 318.18 392.12Q319.25 392.12 319.92 392.65Q320.1 392.8 320.26 392.99Q320.27 393 320.29 393.02Q320.97 393.87 320.97 395.27Q320.97 396.15 320.69 397.09Q320.48 397.84 320.12 398.51Q320.03 398.68 319.93 398.84Q319.7 399.21 319.41 399.52Q319.07 399.88 318.63 400.16Q318.25 400.41 317.82 400.53Q317.37 400.67 316.88 400.67Q315.95 400.67 315.3 400.25Q315.04 400.08 314.82 399.84Q314.73 399.74 314.64 399.63Q314.05 398.84 314.05 397.61Q314.05 397.27 314.09 396.93Q314.23 395.5 314.97 394.14Q315.25 393.65 315.62 393.26Q315.94 392.94 316.33 392.68Q316.85 392.34 317.41 392.21ZM330.49 395.83L323.86 395.83Q324.22 394.12 325.26 393.12Q325.82 392.59 326.47 392.35Q327.06 392.12 327.73 392.12Q328.78 392.12 329.46 392.62Q329.65 392.76 329.8 392.93Q329.82 392.95 329.83 392.96Q330.54 393.77 330.54 395.2Q330.54 395.4 330.49 395.83ZM268.9 392.38Q269.51 392.14 270.23 392.14Q271.33 392.14 272.04 392.67Q272.22 392.79 272.37 392.95Q272.47 393.06 272.56 393.18Q273.14 393.95 273.14 395.15Q273.14 395.27 273.13 395.4Q273.1 396.23 272.89 397.04Q272.69 397.8 272.34 398.47Q272.25 398.64 272.15 398.81Q271.94 399.17 271.66 399.46Q271.31 399.85 270.84 400.14Q270.61 400.29 270.36 400.39Q269.73 400.65 269 400.65Q267.89 400.65 267.17 400.12Q266.97 399.99 266.81 399.81Q266.79 399.78 266.76 399.75Q266.03 398.91 266.03 397.43Q266.03 396.5 266.26 395.64Q266.35 395.29 266.48 394.96Q266.67 394.44 266.97 394Q267.36 393.42 267.92 392.96Q268.37 392.59 268.9 392.38ZM299.24 392.38Q299.86 392.14 300.57 392.14Q301.67 392.14 302.39 392.67Q302.56 392.79 302.71 392.95Q302.82 393.06 302.91 393.18Q303.49 393.95 303.49 395.15Q303.49 395.27 303.48 395.4Q303.45 396.23 303.24 397.04Q303.04 397.8 302.69 398.47Q302.6 398.64 302.5 398.81Q302.29 399.17 302.01 399.46Q301.66 399.85 301.19 400.14Q300.96 400.29 300.71 400.39Q300.08 400.65 299.35 400.65Q298.24 400.65 297.51 400.12Q297.32 399.99 297.16 399.81Q297.13 399.78 297.11 399.75Q296.38 398.91 296.38 397.43Q296.38 396.5 296.6 395.64Q296.7 395.29 296.82 394.96Q297.02 394.44 297.32 394Q297.71 393.42 298.26 392.96Q298.72 392.59 299.24 392.38ZM216.31 396.21Q216.85 396.1 217.16 395.81L216.94 396.73Q216.64 397.99 216.33 398.62Q216.04 399.19 215.6 399.62Q215.31 399.9 214.96 400.12Q214.6 400.35 214.2 400.48Q213.64 400.67 213.02 400.67Q211.98 400.67 211.38 400.16Q211.2 400 211.07 399.81Q210.79 399.37 210.79 398.75Q210.79 398.39 210.89 398.07Q210.97 397.82 211.11 397.59Q211.31 397.27 211.6 397.05Q211.77 396.93 211.98 396.84Q212.75 396.48 214.35 396.38Q215.95 396.28 216.31 396.21ZM346.39 396.72Q346.83 397.12 346.83 398.01Q346.83 398.28 346.77 398.55Q346.7 398.85 346.56 399.13Q346.29 399.66 345.86 399.95Q345.19 400.37 343.55 400.37L340.41 400.37L341.3 396.19L344.31 396.19Q345.52 396.19 346.17 396.56Q346.29 396.62 346.39 396.72Z" fill="#FFFFFF" fill-opacity="1.000000" fill-rule="evenodd"/>
	<path id="Vector 11" d="M0 1L475.5 1" stroke="#FFFFFF" stroke-opacity="1.000000" stroke-width="2.000000"/>
	<path id="Редкие и благородные:" d="M23.15 33.28L4.61 33.28L4.61 76L12.11 76L12.11 59.56L24.18 59.56Q29.72 59.56 33.25 56.9Q33.81 56.48 34.32 55.99Q35.18 55.15 35.85 54.18Q38.04 50.99 38.04 46.29Q38.04 41.17 35.54 38.06Q34.88 37.23 34.04 36.55Q30.05 33.28 23.15 33.28ZM75.23 39.58L75.23 33.28L44.45 33.28L44.45 76L75.6 76L75.6 69.58L51.89 69.58L51.89 56.98L73.56 56.98L73.56 50.92L51.89 50.92L51.89 39.58L75.23 39.58ZM113.22 86.62L120.47 86.62L120.47 69.52L115.68 69.52L115.68 33.28L87.83 33.28L87.83 39.87Q87.83 48.63 86.27 56.92Q84.71 65.2 82.25 69.52L78.11 69.52L78.11 86.62L85.37 86.62L85.37 76L113.22 76L113.22 86.62ZM144.29 50.32L161.39 33.28L151.91 33.28L133.02 52.66L133.02 33.28L125.57 33.28L125.57 76L133.02 76L133.02 61.65L139.14 55.53L153.17 76L162.47 76L144.29 50.32ZM166.62 33.28L166.62 76L175.32 76L193.67 43.24L193.67 76L201.17 76L201.17 33.28L192.47 33.28L174.12 66.03L174.12 33.28L166.62 33.28ZM240.77 39.58L240.77 33.28L209.99 33.28L209.99 76L241.14 76L241.14 69.58L217.44 69.58L217.44 56.98L239.1 56.98L239.1 50.92L217.44 50.92L217.44 39.58L240.77 39.58ZM264.42 33.28L264.42 76L273.12 76L291.47 43.24L291.47 76L298.97 76L298.97 33.28L290.27 33.28L271.92 66.03L271.92 33.28L264.42 33.28ZM12.11 53.5L12.11 39.52L21.89 39.52Q27.33 39.52 29.41 42.16Q30.71 43.81 30.71 46.48Q30.71 49.46 29.24 51.18Q27.24 53.5 22.55 53.5L12.11 53.5ZM108.18 39.75L108.18 69.52L90.3 69.52Q92.33 65.37 93.74 57.73Q94.6 53.08 94.94 48.39Q95.16 45.37 95.16 42.33L95.16 39.75L108.18 39.75ZM189.58 101.58Q185.3 99.25 179.76 99.25Q173.25 99.25 168.6 102.19Q166.43 103.57 164.66 105.58Q163.46 106.96 162.52 108.49Q159.12 114.02 159.12 121.64Q159.12 129.86 162.94 135.5Q163.77 136.73 164.79 137.84Q166.85 140.09 169.38 141.52Q173.8 144.02 179.63 144.02Q185.3 144.02 189.65 141.62Q192.3 140.16 194.45 137.81Q195.58 136.58 196.48 135.21Q200.15 129.63 200.15 121.64Q200.15 113.58 196.45 107.98Q195.57 106.66 194.48 105.47Q192.28 103.06 189.58 101.58ZM275.2 101.58Q270.92 99.25 265.38 99.25C259.01 99.25 253.98 101.36 250.28 105.58Q249.08 106.96 248.14 108.49Q244.74 114.02 244.74 121.64Q244.74 129.86 248.56 135.5Q249.39 136.73 250.41 137.84C254.19 141.96 259.14 144.02 265.25 144.02Q270.92 144.02 275.27 141.62Q277.92 140.16 280.07 137.81Q281.2 136.58 282.1 135.21Q285.77 129.63 285.77 121.64Q285.77 113.58 282.07 107.98Q281.19 106.66 280.1 105.47Q277.9 103.06 275.2 101.58ZM123.54 143L107.03 100.22L99.06 100.22L82.55 143L90.3 143L94.49 131.66L111.41 131.66L115.5 143L123.54 143ZM36.95 138.09Q39.41 134.85 39.41 129.74Q39.41 124.67 36.97 121.48Q36.38 120.7 35.63 120.03Q31.86 116.6 24.84 116.6L12.05 116.6L12.05 106.76L36 106.76L36 100.28L4.55 100.28L4.55 143L24.84 143Q31.8 143 35.61 139.55Q36.35 138.88 36.95 138.09ZM71.22 143L78.72 143L78.72 100.28L50.81 100.28L49.98 125.05Q49.79 130.22 48.95 133.14Q48.12 136.04 47.04 136.89Q45.95 137.72 44.21 137.72Q42.48 137.72 41.28 137.24L41.28 143Q43.62 143.77 45.78 143.77Q48 143.77 49.85 142.94Q52.09 141.93 53.79 139.7Q56.88 135.61 57.23 127.1L58.02 106.76L71.22 106.76L71.22 143ZM127.61 143L135.11 143L135.11 106.76L156.6 106.76L156.6 100.28L127.61 100.28L127.61 143ZM225.59 100.28L207.05 100.28L207.05 143L214.55 143L214.55 126.56L226.62 126.56Q232.16 126.56 235.69 123.9Q236.25 123.48 236.76 122.99Q237.62 122.15 238.29 121.18Q240.48 117.99 240.48 113.29Q240.48 108.17 237.98 105.06Q237.32 104.23 236.48 103.55Q232.49 100.28 225.59 100.28ZM323.46 153.62L330.71 153.62L330.71 136.52L325.92 136.52L325.92 100.28L298.07 100.28L298.07 106.87Q298.07 115.63 296.51 123.92Q294.95 132.2 292.49 136.52L288.35 136.52L288.35 153.62L295.61 153.62L295.61 143L323.46 143L323.46 153.62ZM370.31 143L370.31 100.28L362.81 100.28L362.81 117.26L343.26 117.26L343.26 100.28L335.76 100.28L335.76 143L343.26 143L343.26 123.79L362.81 123.79L362.81 143L370.31 143ZM409.07 138.09Q411.54 134.85 411.54 129.74Q411.54 124.67 409.09 121.48Q408.5 120.7 407.76 120.03Q403.98 116.6 396.96 116.6L386.75 116.6L386.75 100.28L379.25 100.28L379.25 143L396.96 143Q403.92 143 407.73 139.55Q408.47 138.88 409.07 138.09ZM424.08 100.28L416.58 100.28L416.58 143L424.08 143L424.08 100.28ZM463.67 106.58L463.67 100.28L432.89 100.28L432.89 143L464.04 143L464.04 136.58L440.34 136.58L440.34 123.98L462 123.98L462 117.92L440.34 117.92L440.34 106.58L463.67 106.58ZM173.76 106.93Q176.33 105.55 179.63 105.55Q183.1 105.55 185.74 107.04Q187.62 108.09 189.08 109.9Q192.59 114.26 192.59 121.58Q192.59 128.89 189.08 133.31Q187.48 135.33 185.39 136.42Q182.92 137.72 179.76 137.72Q176.11 137.72 173.38 136.14Q171.58 135.09 170.18 133.34Q166.68 128.96 166.68 121.52Q166.68 114.26 170.21 109.9Q171.76 108 173.76 106.93ZM255.83 109.9C258.19 107 261.33 105.55 265.25 105.55Q268.72 105.55 271.36 107.04Q273.24 108.09 274.7 109.9Q278.21 114.26 278.21 121.58Q278.21 128.89 274.7 133.31Q273.1 135.33 271.01 136.42Q268.54 137.72 265.38 137.72C261.34 137.72 258.14 136.26 255.8 133.34Q252.3 128.96 252.3 121.52Q252.3 114.26 255.83 109.9ZM214.55 120.5L214.55 106.52L224.33 106.52Q229.77 106.52 231.86 109.16Q233.15 110.81 233.15 113.48Q233.15 116.46 231.68 118.18Q229.68 120.5 224.99 120.5L214.55 120.5ZM318.42 106.76L318.42 136.52L300.54 136.52Q302.57 132.38 303.98 124.73Q304.84 120.08 305.18 115.39Q305.4 112.37 305.4 109.33L305.4 106.76L318.42 106.76ZM103.07 108.02L109.43 126.02L96.41 126.02L103.07 108.02ZM478.68 120.44L478.68 112.34L470.52 112.34L470.52 120.44L478.68 120.44ZM30.63 125.44Q31.91 127.21 31.91 129.91Q31.91 133.19 30.28 134.92Q28.44 136.87 24.53 136.87L12.05 136.87L12.05 122.72L24.41 122.72Q27.62 122.72 29.55 124.29Q29.75 124.46 29.94 124.64Q30.32 125.01 30.63 125.44ZM402.75 125.44Q404.04 127.21 404.04 129.91Q404.04 133.19 402.4 134.92Q400.56 136.87 396.65 136.87L386.75 136.87L386.75 122.72L396.54 122.72Q399.74 122.72 401.67 124.29Q401.87 124.46 402.06 124.64Q402.44 125.01 402.75 125.44ZM478.68 143L478.68 134.89L470.52 134.89L470.52 143L478.68 143Z" fill="#FFFFFF" fill-opacity="1.000000" fill-rule="evenodd"/>
	<path id="Vector 12" d="M0 184L179 184" stroke="#FFFFFF" stroke-opacity="1.000000" stroke-width="2.000000"/>
</svg>
