<svg width="551" height="420" viewBox="0 0 551 420" fill="none" xmlns="http://www.w3.org/2000/svg">
<path d="M239.653 199.916C238.704 200.154 237.307 200.417 235.462 200.707C233.616 200.971 232.127 201.103 230.993 201.103C229.438 201.103 228.093 200.945 226.96 200.628C225.826 200.285 224.943 199.864 224.311 199.363C223.678 198.862 223.164 198.229 222.768 197.465C222.399 196.7 222.162 195.989 222.057 195.33C221.951 194.644 221.898 193.866 221.898 192.997V185.207H224.587V192.838C224.587 193.392 224.614 193.893 224.666 194.341C224.719 194.789 224.864 195.316 225.101 195.923C225.365 196.503 225.695 196.99 226.09 197.386C226.512 197.755 227.118 198.084 227.909 198.374C228.7 198.638 229.636 198.77 230.716 198.77C233.616 198.77 236.595 198.387 239.653 197.623V185.207H242.342V213.361H239.653V199.916ZM267.398 185.207V187.5H257.512V213.361H254.823V187.5H244.938V185.207H267.398ZM281.083 184.534C285.011 184.534 288.201 185.905 290.652 188.647C293.13 191.388 294.369 194.96 294.369 199.363C294.369 203.739 293.143 207.284 290.692 210C288.24 212.689 285.024 214.033 281.043 214.033C277.089 214.033 273.899 212.675 271.474 209.96C269.049 207.245 267.836 203.686 267.836 199.284C267.836 194.881 269.049 191.323 271.474 188.607C273.926 185.892 277.129 184.534 281.083 184.534ZM281.043 186.867C277.906 186.867 275.362 188.001 273.412 190.268C271.487 192.535 270.525 195.514 270.525 199.205C270.525 202.974 271.487 206.006 273.412 208.299C275.336 210.567 277.893 211.7 281.083 211.7C284.273 211.7 286.83 210.567 288.754 208.299C290.705 206.032 291.68 203.04 291.68 199.323C291.68 195.606 290.705 192.601 288.754 190.308C286.803 188.014 284.233 186.867 281.043 186.867ZM309.614 185.207H321.674C324.205 185.207 326.301 185.787 327.962 186.947C329.649 188.106 330.492 189.873 330.492 192.245C330.492 193.748 330.018 195.079 329.069 196.239C328.146 197.399 327 198.137 325.629 198.453C327.369 198.796 328.792 199.521 329.899 200.628C331.033 201.735 331.6 203.291 331.6 205.294C331.6 207.904 330.69 209.907 328.871 211.305C327.079 212.675 324.812 213.361 322.07 213.361H309.614V185.207ZM312.224 187.5V197.663H321.16C323.032 197.663 324.614 197.267 325.906 196.476C327.197 195.685 327.843 194.394 327.843 192.601C327.843 191.547 327.632 190.664 327.21 189.952C326.815 189.24 326.235 188.713 325.471 188.37C324.706 188.027 323.928 187.803 323.138 187.698C322.373 187.566 321.477 187.5 320.449 187.5H312.224ZM312.224 199.837V211.067H320.646C321.78 211.067 322.768 211.001 323.612 210.87C324.482 210.738 325.339 210.487 326.182 210.118C327.052 209.723 327.724 209.13 328.199 208.339C328.673 207.522 328.911 206.52 328.911 205.334C328.911 204.2 328.66 203.251 328.159 202.487C327.685 201.696 327 201.129 326.103 200.786C325.207 200.417 324.324 200.167 323.454 200.035C322.584 199.903 321.595 199.837 320.488 199.837H312.224ZM354.653 199.284C356.155 200.734 356.906 202.711 356.906 205.215C356.906 207.719 356.155 209.71 354.653 211.186C353.15 212.636 351.107 213.361 348.523 213.361H335.989V185.207H338.677V197.069H348.523C351.107 197.069 353.15 197.807 354.653 199.284ZM352.557 209.525C353.664 208.471 354.218 207.034 354.218 205.215C354.218 203.396 353.664 201.973 352.557 200.945C351.45 199.89 349.907 199.363 347.93 199.363H338.677V211.067H347.93C349.907 211.067 351.45 210.553 352.557 209.525ZM360.861 185.207H363.55V213.361H360.861V185.207ZM403.058 185.207V213.361H398.115V200.707H385.224V213.361H380.282V185.207H385.224V196.397H398.115V185.207H403.058ZM429.143 185.207V189.359H413.761V196.832H428.036V200.826H413.761V209.13H429.381V213.361H408.858V185.207H429.143ZM243.765 250.215C243.765 251.164 243.568 252.126 243.172 253.102C242.777 254.051 242.171 254.987 241.353 255.909C240.563 256.806 239.442 257.544 237.992 258.124C236.542 258.704 234.882 258.994 233.01 258.994C229.477 258.994 226.617 258.15 224.429 256.463C222.241 254.776 221.147 252.298 221.147 249.029H226.011C226.011 251.085 226.683 252.614 228.028 253.616C229.372 254.591 231.125 255.079 233.287 255.079C235.079 255.079 236.45 254.657 237.399 253.813C238.348 252.97 238.823 251.744 238.823 250.136C238.823 248.66 238.348 247.539 237.399 246.775C236.476 246.01 235.198 245.628 233.564 245.628H230.123V241.793H233.564C234.855 241.793 235.923 241.384 236.766 240.567C237.636 239.75 238.071 238.695 238.071 237.403C238.071 236.164 237.636 235.202 236.766 234.517C235.897 233.805 234.671 233.449 233.089 233.449C229.293 233.449 227.25 235.097 226.96 238.392H222.254C222.36 235.387 223.375 233.159 225.299 231.709C227.224 230.259 229.715 229.534 232.773 229.534C235.752 229.534 238.19 230.18 240.088 231.472C241.986 232.737 242.935 234.635 242.935 237.166C242.935 238.59 242.474 239.881 241.551 241.041C240.628 242.201 239.587 242.926 238.427 243.216V243.335C240.009 243.651 241.287 244.442 242.263 245.707C243.265 246.946 243.765 248.449 243.765 250.215ZM271.186 230.207V258.361H266.243V245.707H253.352V258.361H248.409V230.207H253.352V241.397H266.243V230.207H271.186ZM289.877 230.167L300.751 258.361H295.452L292.763 250.887H281.612L278.844 258.361H273.743L284.617 230.167H289.877ZM291.458 247.17L287.267 235.308L282.878 247.17H291.458ZM323.645 230.207V234.359H308.263V241.832H322.538V245.826H308.263V254.13H323.883V258.361H303.36V230.207H323.645ZM348.513 230.207V234.477H339.537V258.361H334.594V234.477H325.618V230.207H348.513ZM371.992 230.207V234.359H356.61V241.832H370.885V245.826H356.61V254.13H372.229V258.361H351.707V230.207H371.992ZM399.324 229.534C403.252 229.534 406.442 230.905 408.893 233.647C411.371 236.388 412.61 239.96 412.61 244.363C412.61 248.739 411.384 252.284 408.933 255C406.481 257.689 403.265 259.033 399.284 259.033C395.33 259.033 392.14 257.675 389.715 254.96C387.29 252.245 386.077 248.686 386.077 244.284C386.077 239.881 387.29 236.323 389.715 233.607C392.167 230.892 395.37 229.534 399.324 229.534ZM399.284 231.867C396.147 231.867 393.604 233.001 391.653 235.268C389.728 237.535 388.766 240.514 388.766 244.205C388.766 247.974 389.728 251.006 391.653 253.299C393.577 255.567 396.134 256.7 399.324 256.7C402.514 256.7 405.071 255.567 406.995 253.299C408.946 251.032 409.921 248.04 409.921 244.323C409.921 240.606 408.946 237.601 406.995 235.308C405.044 233.014 402.474 231.867 399.284 231.867ZM247.324 310.953H244.635V303.361H222.808V310.953H220.119V301.067H222.689C223.401 299.749 224.007 298.405 224.508 297.034C225.036 295.637 225.444 294.121 225.734 292.487C226.024 290.852 226.248 289.521 226.406 288.493C226.591 287.465 226.709 286.002 226.762 284.104C226.841 282.206 226.881 281.006 226.881 280.505C226.881 279.978 226.881 278.752 226.881 276.828V275.207H244.359V301.067H247.324V310.953ZM241.67 301.067V277.5H229.57V278.014C229.57 280.281 229.543 282.074 229.491 283.392C229.438 284.71 229.306 286.529 229.095 288.849C228.884 291.142 228.476 293.304 227.869 295.334C227.263 297.337 226.485 299.248 225.536 301.067H241.67ZM250.689 275.207H262.75C265.465 275.207 267.614 275.892 269.195 277.263C270.803 278.607 271.607 280.558 271.607 283.115C271.607 285.804 270.803 287.847 269.195 289.244C267.587 290.641 265.412 291.34 262.671 291.34H253.378V303.361H250.689V275.207ZM253.378 277.5V289.086H261.919C264.002 289.086 265.689 288.625 266.981 287.702C268.273 286.753 268.918 285.29 268.918 283.313C268.918 281.362 268.325 279.912 267.139 278.963C265.953 277.988 264.305 277.5 262.196 277.5H253.378ZM283.887 275.128L295.117 303.361H292.151L288.751 294.503H275.86L272.42 303.361H269.533L280.921 275.128H283.887ZM287.92 292.329L282.384 277.658L276.69 292.329H287.92ZM300.253 303.361H297.604V275.207H315.042V277.5H300.253V303.361ZM329.932 274.534C333.86 274.534 337.049 275.905 339.501 278.647C341.979 281.388 343.218 284.96 343.218 289.363C343.218 293.739 341.992 297.284 339.541 300C337.089 302.689 333.873 304.033 329.892 304.033C325.938 304.033 322.748 302.675 320.323 299.96C317.898 297.245 316.685 293.686 316.685 289.284C316.685 284.881 317.898 281.323 320.323 278.607C322.775 275.892 325.977 274.534 329.932 274.534ZM329.892 276.867C326.755 276.867 324.211 278.001 322.261 280.268C320.336 282.535 319.374 285.514 319.374 289.205C319.374 292.974 320.336 296.006 322.261 298.299C324.185 300.567 326.742 301.7 329.932 301.7C333.121 301.7 335.679 300.567 337.603 298.299C339.554 296.032 340.529 293.04 340.529 289.323C340.529 285.606 339.554 282.601 337.603 280.308C335.652 278.014 333.082 276.867 329.892 276.867ZM372.567 310.953H369.878V303.361H347.457V275.207H350.146V301.067H366.912V275.207H369.601V301.067H372.567V310.953ZM395.528 275.207V277.5H378.683V287.663H394.461V289.916H378.683V301.067H395.686V303.361H375.994V275.207H395.528ZM421.578 275.207V303.361H418.889V289.758H402.083V303.361H399.394V275.207H402.083V287.465H418.889V275.207H421.578ZM449.42 275.207V303.361H446.731V289.758H429.925V303.361H427.236V275.207H429.925V287.465H446.731V275.207H449.42ZM473.782 289.284C475.284 290.734 476.036 292.711 476.036 295.215C476.036 297.719 475.284 299.71 473.782 301.186C472.279 302.636 470.236 303.361 467.653 303.361H455.118V275.207H457.807V287.069H467.653C470.236 287.069 472.279 287.807 473.782 289.284ZM471.686 299.525C472.793 298.471 473.347 297.034 473.347 295.215C473.347 293.396 472.793 291.973 471.686 290.945C470.579 289.89 469.037 289.363 467.06 289.363H457.807V301.067H467.06C469.037 301.067 470.579 300.553 471.686 299.525ZM479.99 275.207H482.679V303.361H479.99V275.207ZM508.018 275.207L498.41 288.888L508.572 303.361H505.329L498.291 293.278C497.737 292.487 497.381 291.946 497.223 291.656C497.065 291.34 496.92 291.076 496.788 290.865C496.656 290.997 496.485 291.208 496.274 291.498C496.09 291.788 495.879 292.118 495.642 292.487C495.404 292.856 495.246 293.106 495.167 293.238L488.049 303.361H484.965L495.207 288.888L485.598 275.207H488.761L495.048 284.222C495.286 284.565 495.589 285.066 495.958 285.725C496.353 286.358 496.63 286.793 496.788 287.03C497.447 286.081 498.054 285.132 498.607 284.183L505.053 275.207H508.018ZM250.053 320.207V348.361H247.482V331.358C247.482 328.616 247.588 325.664 247.799 322.5C247.245 324.24 246.626 325.94 245.94 327.601L237.636 348.361H235.224L226.802 327.838C226.222 326.441 225.602 324.714 224.943 322.658C225.154 325.743 225.26 328.616 225.26 331.279V348.361H222.689V320.207H226.327L234.513 340.294C234.776 340.953 235.422 342.719 236.45 345.593C236.582 345.25 236.859 344.459 237.28 343.22C237.702 341.981 238.045 341.032 238.309 340.373L246.375 320.207H250.053ZM275.202 320.207V322.5H258.357V332.663H274.134V334.916H258.357V346.067H275.36V348.361H255.668V320.207H275.202ZM298.483 320.207V322.5H288.598V348.361H285.909V322.5H276.023V320.207H298.483ZM309.528 320.128L320.758 348.361H317.792L314.392 339.503H301.501L298.061 348.361H295.174L306.562 320.128H309.528ZM313.561 337.329L308.025 322.658L302.331 337.329H313.561ZM344.083 348.361H341.394V322.5H330.046L329.532 339.068C329.347 345.659 327.37 348.954 323.6 348.954C322.546 348.954 321.597 348.769 320.753 348.4V346.186C321.254 346.502 322.177 346.661 323.521 346.661C324.602 346.661 325.419 345.988 325.973 344.644C326.526 343.299 326.856 340.914 326.961 337.487L327.515 320.207H344.083V348.361ZM370.458 348.361H367.769V322.5H356.42L355.906 339.068C355.722 345.659 353.744 348.954 349.975 348.954C348.92 348.954 347.971 348.769 347.128 348.4V346.186C347.629 346.502 348.551 346.661 349.896 346.661C350.977 346.661 351.794 345.988 352.347 344.644C352.901 343.299 353.23 340.914 353.336 337.487L353.889 320.207H370.458V348.361ZM387.184 320.128L398.414 348.361H395.448L392.048 339.503H379.157L375.717 348.361H372.83L384.218 320.128H387.184ZM391.217 337.329L385.681 322.658L379.987 337.329H391.217ZM420.593 320.207L410.984 333.888L421.146 348.361H417.904L410.865 338.278C410.312 337.487 409.956 336.946 409.797 336.656C409.639 336.34 409.494 336.076 409.363 335.865C409.231 335.997 409.059 336.208 408.848 336.498C408.664 336.788 408.453 337.118 408.216 337.487C407.979 337.856 407.82 338.106 407.741 338.238L400.624 348.361H397.539L407.781 333.888L398.172 320.207H401.335L407.623 329.222C407.86 329.565 408.163 330.066 408.532 330.725C408.928 331.358 409.204 331.793 409.363 332.03C410.022 331.081 410.628 330.132 411.181 329.183L417.627 320.207H420.593Z" fill="white"/>
<path d="M229.957 392.02L231.873 382.932H231.853L223.912 392.02H222.904L225.038 381.905H225.828L223.892 391.032H223.912L231.853 381.905H232.881L230.747 392.02H229.957ZM241.472 382.596L239.476 392.02H238.686L240.84 381.905H247.556L247.398 382.596H241.472ZM253.335 395.2L254.007 392.02H245.354L244.683 395.2H243.892L244.722 391.328H245.908C246.592 390.34 247.225 389.05 247.804 387.456C248.383 385.863 248.831 384.302 249.147 382.774L249.325 381.905H255.568L253.572 391.328H254.955L254.126 395.2H253.335ZM254.639 382.596H249.977L249.799 383.367C249.457 384.802 249.009 386.277 248.456 387.792C247.903 389.293 247.33 390.472 246.737 391.328H252.782L254.639 382.596ZM265.171 388.701C264.842 389.86 264.282 390.755 263.492 391.387C262.715 392.006 261.76 392.316 260.627 392.316C259.376 392.316 258.401 391.941 257.703 391.19C257.005 390.426 256.656 389.359 256.656 387.99C256.656 386.172 257.157 384.657 258.158 383.446C259.172 382.221 260.43 381.609 261.931 381.609C263.116 381.609 264.045 381.971 264.716 382.695C265.388 383.406 265.724 384.401 265.724 385.678C265.724 386.047 265.684 386.495 265.605 387.022H257.526C257.473 387.298 257.447 387.621 257.447 387.99C257.447 389.135 257.73 390.037 258.296 390.696C258.876 391.341 259.672 391.664 260.686 391.664C261.543 391.664 262.293 391.407 262.939 390.893C263.584 390.367 264.058 389.636 264.361 388.701H265.171ZM257.624 386.35H264.894C264.934 386.034 264.954 385.803 264.954 385.658C264.954 384.592 264.684 383.762 264.144 383.169C263.604 382.577 262.846 382.28 261.872 382.28C260.831 382.28 259.929 382.649 259.165 383.387C258.401 384.111 257.888 385.099 257.624 386.35ZM274.058 381.905H277.831C278.319 381.905 278.727 381.931 279.056 381.984C279.385 382.023 279.734 382.116 280.103 382.261C280.472 382.392 280.749 382.623 280.933 382.952C281.13 383.268 281.229 383.676 281.229 384.177C281.229 384.875 281.019 385.441 280.597 385.876C280.176 386.31 279.59 386.58 278.839 386.686C279.418 386.791 279.873 387.035 280.202 387.417C280.544 387.799 280.716 388.292 280.716 388.898C280.716 389.781 280.4 390.525 279.767 391.131C279.478 391.407 279.129 391.618 278.72 391.763C278.325 391.894 277.983 391.973 277.693 392C277.417 392.013 277.008 392.02 276.468 392.02H271.925L274.058 381.905ZM274.73 382.577L273.94 386.35H277.436C279.438 386.35 280.439 385.639 280.439 384.216C280.439 383.848 280.367 383.551 280.222 383.327C280.09 383.09 279.886 382.919 279.609 382.814C279.333 382.708 279.069 382.642 278.819 382.616C278.582 382.59 278.279 382.577 277.91 382.577H274.73ZM273.762 387.022L272.873 391.328H276.231C277.127 391.328 277.792 391.269 278.226 391.15C278.727 391.019 279.135 390.735 279.451 390.301C279.767 389.866 279.925 389.372 279.925 388.819C279.925 388.424 279.846 388.101 279.688 387.851C279.543 387.601 279.32 387.423 279.017 387.318C278.727 387.199 278.444 387.12 278.167 387.081C277.904 387.041 277.581 387.022 277.199 387.022H273.762ZM300.892 377.954L293.365 383.9L298.758 392.02H297.79L292.713 384.414L289.335 387.041L288.308 392.02H287.458L290.402 377.954H291.251L289.572 385.955L299.667 377.954H300.892ZM302.202 381.905L301.708 384.256C302.591 382.491 303.947 381.609 305.778 381.609C306.897 381.609 307.78 381.984 308.425 382.735C309.083 383.472 309.413 384.48 309.413 385.757C309.413 386.811 309.215 387.825 308.82 388.799C308.438 389.774 307.832 390.604 307.003 391.289C306.186 391.973 305.238 392.316 304.158 392.316C303.17 392.316 302.367 392.039 301.748 391.486C301.129 390.92 300.773 390.156 300.681 389.195L299.338 395.674H298.547L301.471 381.905H302.202ZM305.561 382.28C304.836 382.28 304.158 382.484 303.526 382.893C302.907 383.301 302.413 383.834 302.044 384.493C301.372 385.731 301.037 387.002 301.037 388.306C301.037 389.333 301.313 390.149 301.866 390.755C302.433 391.361 303.19 391.664 304.138 391.664C304.836 391.664 305.475 391.48 306.054 391.111C306.647 390.729 307.121 390.242 307.477 389.649C307.846 389.056 308.129 388.418 308.326 387.733C308.524 387.048 308.623 386.383 308.623 385.737C308.623 384.697 308.366 383.861 307.852 383.229C307.338 382.596 306.575 382.28 305.561 382.28ZM311.698 384.809C312.001 383.703 312.475 382.899 313.12 382.399C313.779 381.885 314.694 381.628 315.866 381.628C316.92 381.628 317.736 381.839 318.316 382.261C318.895 382.682 319.185 383.275 319.185 384.038C319.185 384.407 319.093 384.987 318.908 385.777L318.197 388.878C317.973 389.8 317.861 390.439 317.861 390.795C317.861 391.216 318.046 391.427 318.414 391.427C318.546 391.427 318.763 391.394 319.066 391.328L318.948 391.98C318.605 392.059 318.349 392.099 318.177 392.099C317.493 392.099 317.15 391.736 317.15 391.012C317.15 390.775 317.196 390.472 317.288 390.103C316.393 391.578 315.076 392.316 313.337 392.316C312.376 392.316 311.619 392.072 311.066 391.585C310.526 391.098 310.256 390.433 310.256 389.59C310.256 389.05 310.387 388.556 310.651 388.108C310.914 387.66 311.276 387.305 311.737 387.041C312.132 386.817 312.587 386.659 313.1 386.567C313.614 386.462 314.43 386.376 315.55 386.31C316.92 386.218 317.743 386.014 318.019 385.698C318.27 385.408 318.395 384.914 318.395 384.216C318.395 382.965 317.552 382.34 315.866 382.34C314.918 382.34 314.174 382.537 313.634 382.932C313.107 383.327 312.725 383.953 312.488 384.809H311.698ZM318.039 386.33C317.815 386.541 317.506 386.686 317.111 386.765C316.847 386.817 316.129 386.883 314.957 386.962C313.785 387.028 312.916 387.193 312.35 387.456C311.955 387.627 311.638 387.904 311.401 388.286C311.164 388.668 311.046 389.089 311.046 389.55C311.046 390.209 311.263 390.729 311.698 391.111C312.132 391.48 312.732 391.664 313.495 391.664C314.272 391.664 314.984 391.466 315.629 391.071C316.274 390.663 316.775 390.11 317.13 389.412C317.354 388.951 317.578 388.259 317.802 387.338L318.039 386.33ZM329.378 388.78C329.023 389.86 328.443 390.716 327.64 391.348C326.837 391.98 325.869 392.296 324.736 392.296C323.511 392.296 322.563 391.934 321.891 391.21C321.22 390.472 320.884 389.438 320.884 388.108C320.884 387.002 321.088 385.968 321.496 385.006C321.904 384.032 322.537 383.222 323.393 382.577C324.249 381.931 325.243 381.609 326.376 381.609C327.482 381.609 328.358 381.905 329.003 382.498C329.648 383.09 329.971 383.894 329.971 384.908V384.967H329.181C329.181 384.137 328.924 383.485 328.41 383.011C327.91 382.537 327.219 382.3 326.336 382.3C324.901 382.3 323.761 382.886 322.919 384.058C322.089 385.217 321.674 386.554 321.674 388.069C321.674 389.201 321.944 390.077 322.484 390.696C323.024 391.315 323.794 391.624 324.795 391.624C326.573 391.624 327.831 390.676 328.568 388.78H329.378ZM337.568 392.02L338.635 386.982H332.333L331.266 392.02H330.476L332.609 381.905H333.4L332.471 386.31H338.773L339.702 381.905H340.492L338.358 392.02H337.568ZM350.598 385.639C350.598 386.442 350.479 387.232 350.242 388.009C350.018 388.786 349.689 389.504 349.254 390.163C348.833 390.808 348.273 391.328 347.575 391.723C346.877 392.118 346.1 392.316 345.244 392.316C343.966 392.316 342.972 391.947 342.261 391.21C341.563 390.472 341.214 389.438 341.214 388.108C341.214 386.37 341.701 384.855 342.676 383.564C343.65 382.261 344.981 381.609 346.666 381.609C347.904 381.609 348.866 381.971 349.551 382.695C350.249 383.406 350.598 384.387 350.598 385.639ZM346.607 382.3C345.646 382.3 344.803 382.603 344.078 383.209C343.354 383.801 342.827 384.532 342.498 385.402C342.169 386.258 342.004 387.16 342.004 388.108C342.004 389.227 342.287 390.097 342.854 390.716C343.433 391.335 344.236 391.644 345.264 391.644C346.014 391.644 346.686 391.46 347.279 391.091C347.885 390.709 348.365 390.222 348.721 389.629C349.076 389.023 349.346 388.378 349.531 387.693C349.715 386.995 349.807 386.297 349.807 385.599C349.807 384.585 349.524 383.782 348.958 383.189C348.392 382.596 347.608 382.3 346.607 382.3ZM360.971 381.925L358.818 392.02H358.047L358.956 387.654H355.38L351.173 392.02H350.185L354.63 387.417C354.116 387.324 353.675 387.054 353.306 386.607C352.937 386.159 352.753 385.639 352.753 385.046C352.753 384.045 353.102 383.275 353.8 382.735C354.511 382.195 355.394 381.925 356.447 381.925H360.971ZM360.043 382.577H356.408C355.578 382.577 354.893 382.794 354.353 383.229C353.813 383.663 353.543 384.289 353.543 385.105C353.543 385.685 353.767 386.146 354.215 386.488C354.663 386.817 355.242 386.982 355.953 386.982H359.114L360.043 382.577ZM364.033 381.905L363.539 384.256C364.422 382.491 365.778 381.609 367.609 381.609C368.728 381.609 369.611 381.984 370.256 382.735C370.914 383.472 371.244 384.48 371.244 385.757C371.244 386.811 371.046 387.825 370.651 388.799C370.269 389.774 369.663 390.604 368.834 391.289C368.017 391.973 367.069 392.316 365.989 392.316C365.001 392.316 364.198 392.039 363.579 391.486C362.96 390.92 362.604 390.156 362.512 389.195L361.169 395.674H360.378L363.302 381.905H364.033ZM367.391 382.28C366.667 382.28 365.989 382.484 365.357 382.893C364.738 383.301 364.244 383.834 363.875 384.493C363.203 385.731 362.868 387.002 362.868 388.306C362.868 389.333 363.144 390.149 363.697 390.755C364.264 391.361 365.021 391.664 365.969 391.664C366.667 391.664 367.306 391.48 367.885 391.111C368.478 390.729 368.952 390.242 369.308 389.649C369.676 389.056 369.96 388.418 370.157 387.733C370.355 387.048 370.454 386.383 370.454 385.737C370.454 384.697 370.197 383.861 369.683 383.229C369.169 382.596 368.406 382.28 367.391 382.28ZM381.332 388.78C380.976 389.86 380.397 390.716 379.593 391.348C378.79 391.98 377.822 392.296 376.689 392.296C375.465 392.296 374.516 391.934 373.845 391.21C373.173 390.472 372.837 389.438 372.837 388.108C372.837 387.002 373.041 385.968 373.45 385.006C373.858 384.032 374.49 383.222 375.346 382.577C376.202 381.931 377.197 381.609 378.329 381.609C379.435 381.609 380.311 381.905 380.957 382.498C381.602 383.09 381.925 383.894 381.925 384.908V384.967H381.134C381.134 384.137 380.878 383.485 380.364 383.011C379.863 382.537 379.172 382.3 378.29 382.3C376.854 382.3 375.715 382.886 374.872 384.058C374.042 385.217 373.627 386.554 373.627 388.069C373.627 389.201 373.897 390.077 374.437 390.696C374.977 391.315 375.748 391.624 376.749 391.624C378.527 391.624 379.784 390.676 380.522 388.78H381.332ZM390.608 392.02H389.739L386.4 386.646L383.891 388.641L383.18 392.02H382.39L384.543 381.905H385.333L384.109 387.594L391.22 381.905H392.366L386.993 386.172L390.608 392.02ZM400.562 388.701C400.233 389.86 399.673 390.755 398.883 391.387C398.106 392.006 397.151 392.316 396.019 392.316C394.768 392.316 393.793 391.941 393.095 391.19C392.397 390.426 392.048 389.359 392.048 387.99C392.048 386.172 392.548 384.657 393.549 383.446C394.563 382.221 395.821 381.609 397.323 381.609C398.508 381.609 399.436 381.971 400.108 382.695C400.78 383.406 401.116 384.401 401.116 385.678C401.116 386.047 401.076 386.495 400.997 387.022H392.917C392.864 387.298 392.838 387.621 392.838 387.99C392.838 389.135 393.121 390.037 393.688 390.696C394.267 391.341 395.064 391.664 396.078 391.664C396.934 391.664 397.685 391.407 398.33 390.893C398.975 390.367 399.45 389.636 399.752 388.701H400.562ZM393.016 386.35H400.286C400.325 386.034 400.345 385.803 400.345 385.658C400.345 384.592 400.075 383.762 399.535 383.169C398.995 382.577 398.238 382.28 397.263 382.28C396.223 382.28 395.321 382.649 394.557 383.387C393.793 384.111 393.279 385.099 393.016 386.35ZM232.742 409.639C232.742 410.442 232.624 411.232 232.387 412.009C232.163 412.786 231.834 413.504 231.399 414.163C230.978 414.808 230.418 415.328 229.72 415.723C229.022 416.118 228.245 416.316 227.389 416.316C226.111 416.316 225.117 415.947 224.406 415.21C223.708 414.472 223.359 413.438 223.359 412.108C223.359 410.37 223.846 408.855 224.821 407.564C225.795 406.261 227.125 405.609 228.811 405.609C230.049 405.609 231.011 405.971 231.695 406.695C232.393 407.406 232.742 408.387 232.742 409.639ZM228.752 406.3C227.791 406.3 226.948 406.603 226.223 407.209C225.499 407.801 224.972 408.532 224.643 409.402C224.314 410.258 224.149 411.16 224.149 412.108C224.149 413.227 224.432 414.097 224.998 414.716C225.578 415.335 226.381 415.644 227.409 415.644C228.159 415.644 228.831 415.46 229.424 415.091C230.029 414.709 230.51 414.222 230.866 413.629C231.221 413.023 231.491 412.378 231.676 411.693C231.86 410.995 231.952 410.297 231.952 409.599C231.952 408.585 231.669 407.782 231.103 407.189C230.536 406.596 229.753 406.3 228.752 406.3ZM246.066 416.02L247.133 410.982H240.831L239.764 416.02H238.974L241.107 405.905H241.898L240.969 410.31H247.271L248.199 405.905H248.99L246.856 416.02H246.066ZM256.31 416.02L258.226 406.932H258.206L250.265 416.02H249.257L251.391 405.905H252.181L250.245 415.032H250.265L258.206 405.905H259.234L257.1 416.02H256.31ZM268.569 405.905L264.065 410.784L266.89 416.02H265.961L263.492 411.298L259.166 416.02H258.178L263.136 410.705L260.588 405.905H261.497L263.709 410.212L267.601 405.905H268.569ZM276.177 406.616L274.181 416.02H273.391L275.545 405.905H276.769L278.587 415.091L284.296 405.905H285.6L283.447 416.02H282.656L284.652 406.616H284.612L278.844 416.02H278.014L276.216 406.616H276.177ZM295.692 409.639C295.692 410.442 295.574 411.232 295.337 412.009C295.113 412.786 294.784 413.504 294.349 414.163C293.928 414.808 293.368 415.328 292.67 415.723C291.972 416.118 291.195 416.316 290.339 416.316C289.061 416.316 288.067 415.947 287.356 415.21C286.658 414.472 286.309 413.438 286.309 412.108C286.309 410.37 286.796 408.855 287.771 407.564C288.745 406.261 290.075 405.609 291.761 405.609C292.999 405.609 293.961 405.971 294.645 406.695C295.343 407.406 295.692 408.387 295.692 409.639ZM291.702 406.3C290.74 406.3 289.898 406.603 289.173 407.209C288.449 407.801 287.922 408.532 287.593 409.402C287.264 410.258 287.099 411.16 287.099 412.108C287.099 413.227 287.382 414.097 287.948 414.716C288.528 415.335 289.331 415.644 290.359 415.644C291.109 415.644 291.781 415.46 292.374 415.091C292.979 414.709 293.46 414.222 293.816 413.629C294.171 413.023 294.441 412.378 294.626 411.693C294.81 410.995 294.902 410.297 294.902 409.599C294.902 408.585 294.619 407.782 294.053 407.189C293.486 406.596 292.703 406.3 291.702 406.3ZM299.29 406.596L297.295 416.02H296.505L298.658 405.905H305.375L305.216 406.596H299.29ZM313.6 405.905L307.891 415.921C307.246 417.08 306.726 417.923 306.33 418.449C306.014 418.897 305.672 419.213 305.303 419.398C304.948 419.582 304.5 419.674 303.96 419.674C303.828 419.674 303.571 419.654 303.189 419.615L303.347 418.924C303.598 418.937 303.815 418.943 303.999 418.943C304.553 418.943 304.987 418.805 305.303 418.528C305.619 418.252 305.949 417.817 306.291 417.225L307.002 416.02L305.046 405.905H305.876L307.121 412.286C307.279 413.05 307.437 413.991 307.595 415.111C307.964 414.347 308.431 413.471 308.997 412.483L312.711 405.905H313.6ZM318.1 406.596L316.105 416.02H315.315L317.31 406.596H313.477L313.616 405.905H322.071L321.933 406.596H318.1ZM329.848 405.905L329.354 408.256C330.236 406.491 331.593 405.609 333.423 405.609C334.543 405.609 335.425 405.984 336.07 406.735C336.729 407.472 337.058 408.48 337.058 409.757C337.058 410.811 336.861 411.825 336.466 412.799C336.084 413.774 335.478 414.604 334.648 415.289C333.832 415.973 332.883 416.316 331.803 416.316C330.816 416.316 330.012 416.039 329.393 415.486C328.774 414.92 328.419 414.156 328.326 413.195L326.983 419.674H326.193L329.117 405.905H329.848ZM333.206 406.28C332.482 406.28 331.803 406.484 331.171 406.893C330.552 407.301 330.058 407.834 329.69 408.493C329.018 409.731 328.682 411.002 328.682 412.306C328.682 413.333 328.959 414.149 329.512 414.755C330.078 415.361 330.835 415.664 331.784 415.664C332.482 415.664 333.12 415.48 333.7 415.111C334.293 414.729 334.767 414.242 335.122 413.649C335.491 413.056 335.774 412.418 335.972 411.733C336.169 411.048 336.268 410.383 336.268 409.737C336.268 408.697 336.011 407.861 335.498 407.229C334.984 406.596 334.22 406.28 333.206 406.28ZM339.343 408.809C339.646 407.703 340.12 406.899 340.766 406.399C341.424 405.885 342.339 405.628 343.511 405.628C344.565 405.628 345.382 405.839 345.961 406.261C346.541 406.682 346.83 407.275 346.83 408.038C346.83 408.407 346.738 408.987 346.554 409.777L345.843 412.878C345.619 413.8 345.507 414.439 345.507 414.795C345.507 415.216 345.691 415.427 346.06 415.427C346.192 415.427 346.409 415.394 346.712 415.328L346.593 415.98C346.251 416.059 345.994 416.099 345.823 416.099C345.138 416.099 344.796 415.736 344.796 415.012C344.796 414.775 344.842 414.472 344.934 414.103C344.038 415.578 342.721 416.316 340.983 416.316C340.021 416.316 339.264 416.072 338.711 415.585C338.171 415.098 337.901 414.433 337.901 413.59C337.901 413.05 338.033 412.556 338.296 412.108C338.56 411.66 338.922 411.305 339.383 411.041C339.778 410.817 340.232 410.659 340.746 410.567C341.259 410.462 342.076 410.376 343.195 410.31C344.565 410.218 345.388 410.014 345.665 409.698C345.915 409.408 346.04 408.914 346.04 408.216C346.04 406.965 345.197 406.34 343.511 406.34C342.563 406.34 341.819 406.537 341.279 406.932C340.752 407.327 340.37 407.953 340.133 408.809H339.343ZM345.685 410.33C345.461 410.541 345.151 410.686 344.756 410.765C344.493 410.817 343.775 410.883 342.603 410.962C341.431 411.028 340.561 411.193 339.995 411.456C339.6 411.627 339.284 411.904 339.047 412.286C338.81 412.668 338.691 413.089 338.691 413.55C338.691 414.209 338.909 414.729 339.343 415.111C339.778 415.48 340.377 415.664 341.141 415.664C341.918 415.664 342.629 415.466 343.274 415.071C343.92 414.663 344.42 414.11 344.776 413.412C345 412.951 345.224 412.259 345.447 411.338L345.685 410.33ZM357.024 412.78C356.668 413.86 356.089 414.716 355.285 415.348C354.482 415.98 353.514 416.296 352.382 416.296C351.157 416.296 350.208 415.934 349.537 415.21C348.865 414.472 348.529 413.438 348.529 412.108C348.529 411.002 348.733 409.968 349.142 409.006C349.55 408.032 350.182 407.222 351.038 406.577C351.894 405.931 352.889 405.609 354.021 405.609C355.127 405.609 356.003 405.905 356.649 406.498C357.294 407.09 357.617 407.894 357.617 408.908V408.967H356.826C356.826 408.137 356.57 407.485 356.056 407.011C355.555 406.537 354.864 406.3 353.982 406.3C352.546 406.3 351.407 406.886 350.564 408.058C349.734 409.217 349.319 410.554 349.319 412.069C349.319 413.201 349.589 414.077 350.129 414.696C350.669 415.315 351.44 415.624 352.441 415.624C354.219 415.624 355.476 414.676 356.214 412.78H357.024ZM367.268 412.78C366.912 413.86 366.333 414.716 365.53 415.348C364.726 415.98 363.758 416.296 362.626 416.296C361.401 416.296 360.453 415.934 359.781 415.21C359.109 414.472 358.773 413.438 358.773 412.108C358.773 411.002 358.977 409.968 359.386 409.006C359.794 408.032 360.426 407.222 361.282 406.577C362.138 405.931 363.133 405.609 364.265 405.609C365.372 405.609 366.247 405.905 366.893 406.498C367.538 407.09 367.861 407.894 367.861 408.908V408.967H367.07C367.07 408.137 366.814 407.485 366.3 407.011C365.8 406.537 365.108 406.3 364.226 406.3C362.79 406.3 361.651 406.886 360.808 408.058C359.978 409.217 359.564 410.554 359.564 412.069C359.564 413.201 359.834 414.077 360.373 414.696C360.913 415.315 361.684 415.624 362.685 415.624C364.463 415.624 365.721 414.676 366.458 412.78H367.268ZM376.544 416.02H375.675L372.336 410.646L369.827 412.641L369.116 416.02H368.326L370.479 405.905H371.269L370.045 411.594L377.156 405.905H378.302L372.929 410.172L376.544 416.02ZM378.853 408.809C379.156 407.703 379.63 406.899 380.276 406.399C380.934 405.885 381.849 405.628 383.022 405.628C384.075 405.628 384.892 405.839 385.471 406.261C386.051 406.682 386.34 407.275 386.34 408.038C386.34 408.407 386.248 408.987 386.064 409.777L385.353 412.878C385.129 413.8 385.017 414.439 385.017 414.795C385.017 415.216 385.201 415.427 385.57 415.427C385.702 415.427 385.919 415.394 386.222 415.328L386.103 415.98C385.761 416.059 385.504 416.099 385.333 416.099C384.648 416.099 384.306 415.736 384.306 415.012C384.306 414.775 384.352 414.472 384.444 414.103C383.548 415.578 382.231 416.316 380.493 416.316C379.532 416.316 378.774 416.072 378.221 415.585C377.681 415.098 377.411 414.433 377.411 413.59C377.411 413.05 377.543 412.556 377.806 412.108C378.07 411.66 378.432 411.305 378.893 411.041C379.288 410.817 379.742 410.659 380.256 410.567C380.77 410.462 381.586 410.376 382.706 410.31C384.075 410.218 384.898 410.014 385.175 409.698C385.425 409.408 385.55 408.914 385.55 408.216C385.55 406.965 384.707 406.34 383.022 406.34C382.073 406.34 381.329 406.537 380.789 406.932C380.262 407.327 379.881 407.953 379.643 408.809H378.853ZM385.195 410.33C384.971 410.541 384.661 410.686 384.266 410.765C384.003 410.817 383.285 410.883 382.113 410.962C380.941 411.028 380.071 411.193 379.505 411.456C379.11 411.627 378.794 411.904 378.557 412.286C378.32 412.668 378.201 413.089 378.201 413.55C378.201 414.209 378.419 414.729 378.853 415.111C379.288 415.48 379.887 415.664 380.651 415.664C381.428 415.664 382.139 415.466 382.785 415.071C383.43 414.663 383.93 414.11 384.286 413.412C384.51 412.951 384.734 412.259 384.958 411.338L385.195 410.33ZM393.452 410.626C394.098 410.692 394.618 410.936 395.013 411.357C395.408 411.779 395.606 412.286 395.606 412.878C395.606 413.919 395.164 414.755 394.282 415.387C393.4 416.006 392.405 416.316 391.299 416.316C390.14 416.316 389.225 416.046 388.553 415.506C387.881 414.966 387.545 414.215 387.545 413.254C387.545 413.135 387.559 412.918 387.585 412.602H388.375C388.349 412.892 388.336 413.096 388.336 413.214C388.336 414.834 389.323 415.644 391.299 415.644C392.155 415.644 392.952 415.387 393.689 414.874C394.427 414.347 394.796 413.675 394.796 412.859C394.796 411.608 393.801 410.982 391.813 410.982H390.845L391.003 410.31H391.714C392.109 410.31 392.497 410.277 392.879 410.212C393.261 410.133 393.637 410.014 394.005 409.856C394.374 409.698 394.67 409.461 394.894 409.145C395.131 408.829 395.25 408.453 395.25 408.019C395.25 407.466 395.006 407.038 394.519 406.735C394.045 406.432 393.446 406.28 392.721 406.28C390.746 406.28 389.567 407.136 389.185 408.848H388.375C388.652 407.689 389.152 406.86 389.877 406.359C390.614 405.859 391.582 405.609 392.781 405.609C393.781 405.609 394.572 405.819 395.151 406.241C395.744 406.649 396.04 407.242 396.04 408.019C396.04 408.717 395.79 409.303 395.289 409.777C394.802 410.251 394.19 410.534 393.452 410.626ZM398.068 408.809C398.371 407.703 398.845 406.899 399.491 406.399C400.149 405.885 401.064 405.628 402.236 405.628C403.29 405.628 404.107 405.839 404.686 406.261C405.266 406.682 405.555 407.275 405.555 408.038C405.555 408.407 405.463 408.987 405.279 409.777L404.568 412.878C404.344 413.8 404.232 414.439 404.232 414.795C404.232 415.216 404.416 415.427 404.785 415.427C404.917 415.427 405.134 415.394 405.437 415.328L405.318 415.98C404.976 416.059 404.719 416.099 404.548 416.099C403.863 416.099 403.521 415.736 403.521 415.012C403.521 414.775 403.567 414.472 403.659 414.103C402.763 415.578 401.446 416.316 399.708 416.316C398.746 416.316 397.989 416.072 397.436 415.585C396.896 415.098 396.626 414.433 396.626 413.59C396.626 413.05 396.758 412.556 397.021 412.108C397.285 411.66 397.647 411.305 398.108 411.041C398.503 410.817 398.957 410.659 399.471 410.567C399.984 410.462 400.801 410.376 401.92 410.31C403.29 410.218 404.113 410.014 404.39 409.698C404.64 409.408 404.765 408.914 404.765 408.216C404.765 406.965 403.922 406.34 402.236 406.34C401.288 406.34 400.544 406.537 400.004 406.932C399.477 407.327 399.095 407.953 398.858 408.809H398.068ZM404.41 410.33C404.186 410.541 403.876 410.686 403.481 410.765C403.218 410.817 402.5 410.883 401.328 410.962C400.156 411.028 399.286 411.193 398.72 411.456C398.325 411.627 398.009 411.904 397.772 412.286C397.535 412.668 397.416 413.089 397.416 413.55C397.416 414.209 397.634 414.729 398.068 415.111C398.503 415.48 399.102 415.664 399.866 415.664C400.643 415.664 401.354 415.466 401.999 415.071C402.645 414.663 403.145 414.11 403.501 413.412C403.725 412.951 403.949 412.259 404.172 411.338L404.41 410.33ZM411.956 406.596L409.961 416.02H409.17L411.166 406.596H407.333L407.472 405.905H415.927L415.788 406.596H411.956ZM424.151 412.701C424.151 413.346 423.993 413.932 423.677 414.459C423.361 414.986 422.933 415.381 422.393 415.644C421.853 415.894 420.977 416.02 419.766 416.02H415.4L417.553 405.905H418.324L417.454 410.034H420.793C421.834 410.034 422.65 410.225 423.243 410.607C423.849 410.975 424.151 411.673 424.151 412.701ZM423.361 412.74C423.361 411.95 423.118 411.423 422.63 411.16C422.156 410.883 421.478 410.745 420.596 410.745H417.296L416.309 415.328H419.766C420.964 415.328 421.807 415.177 422.294 414.874C422.611 414.663 422.867 414.367 423.065 413.985C423.262 413.59 423.361 413.175 423.361 412.74Z" fill="white"/>
<path d="M0.5 1.14795H528.871" stroke="white" stroke-width="2.20042"/>
<path d="M5.58808 32.8185H26.0065C31.0725 32.8185 35.0593 34.0299 37.9668 36.4528C40.9183 38.8317 42.3941 42.3999 42.3941 47.1576C42.3941 51.651 41.0284 55.2192 38.2972 57.8624C35.5659 60.4615 31.8435 61.7611 27.1298 61.7611H13.848V79.8667H5.58808V32.8185ZM13.848 39.6907V55.0871H25.3457C31.3369 55.0871 34.3324 52.51 34.3324 47.3558C34.3324 42.2457 31.0946 39.6907 24.6188 39.6907H13.848ZM83.3625 32.8185V39.7568H57.6578V52.2457H81.5123V58.9197H57.6578V72.7962H83.759V79.8667H49.464V32.8185H83.3625ZM133.178 91.5627H125.183V79.8667H94.5221V91.5627H86.5266V72.7302H91.086C92.8922 69.5584 94.3679 64.9329 95.5133 58.8536C96.6587 52.7743 97.2314 46.5188 97.2314 40.0872V32.8185H127.892V72.7302H133.178V91.5627ZM119.632 72.7302V39.955H105.293V42.7964C105.293 48.4792 104.764 54.14 103.707 59.7787C102.694 65.3734 101.438 69.6905 99.9406 72.7302H119.632ZM178.223 32.8185L159.391 51.5849L179.412 79.8667H169.17L153.708 57.3338L146.968 64.0738V79.8667H138.774V32.8185H146.968V54.162L167.783 32.8185H178.223ZM183.943 79.8667V32.8185H192.203V68.8976L212.424 32.8185H222.005V79.8667H213.745V43.7876L193.525 79.8667H183.943ZM265.596 32.8185V39.7568H239.891V52.2457H263.746V58.9197H239.891V72.7962H265.992V79.8667H231.697V32.8185H265.596ZM291.644 79.8667V32.8185H299.904V68.8976L320.125 32.8185H329.706V79.8667H321.446V43.7876L301.226 79.8667H291.644ZM43.9139 139.263C43.9139 143.933 42.5042 147.545 39.6848 150.1C36.9095 152.611 32.9668 153.867 27.8567 153.867H5.522V106.818H40.1474V113.955H13.7819V124.792H27.8567C33.0109 124.792 36.9756 126.047 39.7509 128.558C42.5262 131.069 43.9139 134.638 43.9139 139.263ZM35.654 139.461C35.654 136.995 34.9271 135.056 33.4734 133.647C32.0197 132.237 29.9932 131.532 27.3941 131.532H13.7819V147.127H27.5263C32.9448 147.127 35.654 144.572 35.654 139.461ZM87.175 153.867H78.9151V113.955H64.3777L63.5187 136.356C63.2544 142.611 61.9768 147.237 59.6861 150.232C57.4394 153.228 54.5099 154.726 50.8976 154.726C49.3117 154.726 47.6597 154.439 45.9417 153.867V147.523C46.8227 147.876 47.902 148.052 49.1796 148.052C50.4571 148.052 51.4923 147.743 52.2853 147.127C53.0782 146.51 53.7831 145.144 54.3998 143.03C55.0165 140.871 55.391 137.898 55.5231 134.109L56.4482 106.818H87.175V153.867ZM118.371 106.752L136.543 153.867H127.688L123.195 141.378H104.56L99.9349 153.867H91.4107L109.582 106.752H118.371ZM121.014 135.166L114.01 115.343L106.675 135.166H121.014ZM149.295 153.867H141.036V106.818H172.952V113.955H149.295V153.867ZM198.49 105.695C205.142 105.695 210.538 107.986 214.679 112.567C218.864 117.105 220.956 123.03 220.956 130.343C220.956 137.655 218.864 143.602 214.679 148.184C210.494 152.721 205.053 154.99 198.357 154.99C191.617 154.99 186.155 152.721 181.97 148.184C177.829 143.646 175.758 137.699 175.758 130.343C175.758 123.206 177.785 117.325 181.838 112.699C185.935 108.03 191.485 105.695 198.49 105.695ZM198.357 112.633C194.04 112.633 190.582 114.241 187.983 117.457C185.384 120.629 184.084 124.88 184.084 130.21C184.084 135.673 185.362 140.012 187.917 143.228C190.516 146.444 194.04 148.052 198.49 148.052C202.763 148.052 206.177 146.444 208.732 143.228C211.331 139.968 212.631 135.651 212.631 130.277C212.631 124.902 211.331 120.629 208.732 117.457C206.177 114.241 202.719 112.633 198.357 112.633ZM228.54 106.818H248.958C254.025 106.818 258.011 108.03 260.919 110.453C263.87 112.832 265.346 116.4 265.346 121.158C265.346 125.651 263.98 129.219 261.249 131.862C258.518 134.462 254.795 135.761 250.082 135.761H236.8V153.867H228.54V106.818ZM236.8 113.691V129.087H248.298C254.289 129.087 257.284 126.51 257.284 121.356C257.284 116.246 254.047 113.691 247.571 113.691H236.8ZM292.768 105.695C299.42 105.695 304.817 107.986 308.958 112.567C313.143 117.105 315.235 123.03 315.235 130.343C315.235 137.655 313.143 143.602 308.958 148.184C304.773 152.721 299.332 154.99 292.636 154.99C285.896 154.99 280.434 152.721 276.249 148.184C272.108 143.646 270.037 137.699 270.037 130.343C270.037 123.206 272.064 117.325 276.116 112.699C280.213 108.03 285.764 105.695 292.768 105.695ZM292.636 112.633C288.319 112.633 284.861 114.241 282.262 117.457C279.663 120.629 278.363 124.88 278.363 130.21C278.363 135.673 279.641 140.012 282.196 143.228C284.795 146.444 288.319 148.052 292.768 148.052C297.041 148.052 300.456 146.444 303.011 143.228C305.61 139.968 306.909 135.651 306.909 130.277C306.909 124.902 305.61 120.629 303.011 117.457C300.456 114.241 296.997 112.633 292.636 112.633ZM364.713 165.563H356.717V153.867H326.057V165.563H318.061V146.73H322.621C324.427 143.558 325.902 138.933 327.048 132.854C328.193 126.774 328.766 120.519 328.766 114.087V106.818H359.427V146.73H364.713V165.563ZM351.167 146.73V113.955H336.828V116.796C336.828 122.479 336.299 128.14 335.242 133.779C334.228 139.373 332.973 143.691 331.475 146.73H351.167ZM408.304 106.818V153.867H400.044V132.721H378.502V153.867H370.242V106.818H378.502V125.519H400.044V106.818H408.304ZM453.679 139.263C453.679 143.933 452.269 147.545 449.45 150.1C446.675 152.611 442.732 153.867 437.622 153.867H418.128V106.818H426.388V124.792H437.622C442.776 124.792 446.741 126.047 449.516 128.558C452.291 131.069 453.679 134.638 453.679 139.263ZM445.419 139.461C445.419 136.995 444.692 135.056 443.238 133.647C441.785 132.237 439.758 131.532 437.159 131.532H426.388V147.127H437.291C442.71 147.127 445.419 144.572 445.419 139.461ZM459.23 106.818H467.489V153.867H459.23V106.818ZM511.134 106.818V113.757H485.429V126.246H509.283V132.92H485.429V146.796H511.53V153.867H477.235V106.818H511.134ZM527.646 144.946V153.867H518.659V144.946H527.646ZM527.646 120.1V129.021H518.659V120.1H527.646Z" fill="white"/>
<path d="M2.0459 184.996H196.709" stroke="white" stroke-width="2.20042"/>
</svg>
